<?xml version="1.0" encoding="UTF-8" standalone="no"?>
<!-- Created with Inkscape (http://www.inkscape.org/) -->

<svg
   xmlns:dc="http://purl.org/dc/elements/1.1/"
   xmlns:cc="http://creativecommons.org/ns#"
   xmlns:rdf="http://www.w3.org/1999/02/22-rdf-syntax-ns#"
   xmlns:svg="http://www.w3.org/2000/svg"
   xmlns="http://www.w3.org/2000/svg"
   xmlns:sodipodi="http://sodipodi.sourceforge.net/DTD/sodipodi-0.dtd"
   xmlns:inkscape="http://www.inkscape.org/namespaces/inkscape"
   width="148mm"
   height="105mm"
   viewBox="0 0 524.40944 372.04724"
   id="svg6524"
   version="1.1"
   inkscape:version="0.91 r13725"
   sodipodi:docname="Logo Black and White.svg">
  <defs
     id="defs6526">
    <clipPath
       id="clipPath6546"
       clipPathUnits="userSpaceOnUse">
      <path
         inkscape:connector-curvature="0"
         id="path6548"
         d="M 0,132 319,132 319,0 0,0 0,132 Z" />
    </clipPath>
  </defs>
  <sodipodi:namedview
     id="base"
     pagecolor="#ffffff"
     bordercolor="#666666"
     borderopacity="1.0"
     inkscape:pageopacity="0.0"
     inkscape:pageshadow="2"
     inkscape:zoom="2.8"
     inkscape:cx="294.81187"
     inkscape:cy="158.56179"
     inkscape:document-units="px"
     inkscape:current-layer="layer1"
     showgrid="false"
     inkscape:window-width="2560"
     inkscape:window-height="1377"
     inkscape:window-x="-8"
     inkscape:window-y="-8"
     inkscape:window-maximized="1" />
  <metadata
     id="metadata6529">
    <rdf:RDF>
      <cc:Work
         rdf:about="">
        <dc:format>image/svg+xml</dc:format>
        <dc:type
           rdf:resource="http://purl.org/dc/dcmitype/StillImage" />
        <dc:title></dc:title>
      </cc:Work>
    </rdf:RDF>
  </metadata>
  <g
     inkscape:label="Layer 1"
     inkscape:groupmode="layer"
     id="layer1"
     transform="translate(0,-680.31496)">
    <g
       transform="matrix(1.25,0,0,-1.25,62.204724,949.19483)"
       inkscape:label="Logo Black and White"
       id="g6540">
      <g
         id="g6542">
        <g
           clip-path="url(#clipPath6546)"
           id="g6544">
          <path
             inkscape:connector-curvature="0"
             id="path6550"
             style="fill:#000000;fill-opacity:1;fill-rule:nonzero;stroke:none"
             d="m 145,58 5,0 0,18 -5,0 0,-18 z m 54,10.949 0,7.051 -32,0 0,-18 32,0 0,7.949 115.5,0 0,3 -115.5,0 z M 156,58 l 5,0 0,18 -5,0 0,-18 z m -35,18 0,-7.051 -115.5,0 0,-3 115.5,0 0,-7.949 7,0 0,18 -7,0 z m 18,-18 -5,0 0,18 5,0 0,-18 z M 282.314,29.604 c 3.393,0 5.455,1.73 5.455,5.388 0,3.658 -2.196,4.589 -6.319,4.589 l -3.459,0 0,-9.977 4.323,0 z m -4.323,-25.341 -11.44,0 0,44.231 15.83,0 c 10.243,0 17.094,-3.126 17.094,-12.571 0,-5.587 -3.392,-9.512 -6.851,-11.24 1.197,-0.599 2.262,-1.863 2.927,-3.459 L 303,4.263 l -12.238,0 -6.119,14.034 c -0.732,1.663 -1.796,2.527 -3.526,2.527 l -3.126,0 0,-16.561 z m -37.046,8.646 c 6.119,0 7.915,6.452 7.915,13.17 0,5.587 -1.464,13.701 -8.181,13.701 -5.986,0 -8.115,-6.451 -8.115,-13.036 0,-6.185 1.331,-13.835 8.381,-13.835 m -0.466,-9.444 c -12.371,0 -19.687,7.781 -19.687,22.813 0,17.028 10.908,23.014 20.553,23.014 10.242,0 19.155,-6.119 19.155,-23.014 0,-15.098 -7.981,-22.813 -20.021,-22.813 m -20.617,45.029 0,-9.977 -12.238,0 0,-34.254 -11.374,0 0,34.254 -11.772,0 0,9.977 35.384,0 z m -67.31,-31.061 c 3.059,-1.93 8.846,-4.058 12.637,-4.058 2.461,0 4.589,0.798 4.589,3.857 0,2.728 -2.859,3.659 -6.717,4.789 -5.654,1.73 -12.704,4.458 -12.704,13.37 0,8.913 6.917,13.901 16.096,13.901 6.318,0 12.305,-2.794 16.23,-6.585 l -5.92,-7.516 c -3.526,2.594 -7.25,4.523 -10.31,4.523 -2.128,0 -4.19,-0.997 -4.19,-3.458 0,-2.794 3.059,-3.792 7.183,-5.122 6.053,-1.929 12.572,-4.589 12.572,-13.502 0,-9.245 -7.051,-14.167 -16.895,-14.167 -6.651,0 -13.569,2.66 -16.429,4.589 l 3.858,9.379 z m -20.086,31.061 11.44,0 0,-44.231 -11.44,0 0,44.231 z M 96.949,17.433 c 3.06,-1.93 8.846,-4.058 12.638,-4.058 2.461,0 4.589,0.798 4.589,3.857 0,2.728 -2.86,3.659 -6.718,4.789 -5.653,1.73 -12.704,4.458 -12.704,13.37 0,8.913 6.918,13.901 16.097,13.901 6.318,0 12.304,-2.794 16.229,-6.585 l -5.92,-7.516 c -3.525,2.594 -7.25,4.523 -10.309,4.523 -2.129,0 -4.191,-0.997 -4.191,-3.458 0,-2.794 3.06,-3.792 7.184,-5.122 6.052,-1.929 12.571,-4.589 12.571,-13.502 0,-9.245 -7.051,-14.167 -16.894,-14.167 -6.652,0 -13.569,2.66 -16.429,4.589 l 3.857,9.379 z M 60.9,48.494 l 28.933,0 0,-9.977 -17.492,0 0,-6.718 15.032,0 0,-9.977 -15.032,0 0,-7.583 17.958,0 0,-9.976 -29.399,0 0,44.231 z M 36.226,29.604 c 3.392,0 5.454,1.73 5.454,5.388 0,3.658 -2.195,4.589 -6.319,4.589 l -3.458,0 0,-9.977 4.323,0 z m -4.323,-25.341 -11.441,0 0,44.231 15.83,0 c 10.244,0 17.095,-3.126 17.095,-12.571 0,-5.587 -3.393,-9.512 -6.851,-11.24 1.197,-0.599 2.261,-1.863 2.926,-3.459 l 7.45,-16.961 -12.239,0 -6.119,14.034 c -0.732,1.663 -1.796,2.527 -3.525,2.527 l -3.126,0 0,-16.561 z m 225.073,124.044 -14.767,-27.203 0,-17.028 -11.373,0 0,16.961 -14.301,27.27 12.571,0 7.649,-15.963 0.266,0 8.048,15.963 11.907,0 z m -52.478,-18.291 12.903,-25.94 -13.037,0 -7.981,16.362 -3.924,-5.387 0,-10.975 -11.374,0 0,44.231 11.374,0 0,-17.825 12.105,17.825 12.638,0 -12.704,-18.291 z m -33.92,-12.97 5.787,-7.449 c -4.789,-4.39 -9.578,-6.319 -15.697,-6.319 -12.438,0 -20.486,7.716 -20.486,22.548 0,17.493 10.908,23.279 20.818,23.279 5.92,0 11.773,-2.593 16.03,-9.178 l -8.115,-5.853 c -2.594,3.591 -5.254,5.52 -8.447,5.52 -4.988,0 -8.513,-4.39 -8.513,-13.103 0,-8.381 2.86,-13.835 9.312,-13.835 3.391,0 6.452,1.73 9.311,4.39 m -59.661,31.261 0,-28.933 c 0,-5.055 2.594,-6.584 6.252,-6.584 3.459,0 5.92,2.061 5.92,6.252 l 0,29.265 11.44,0 0,-30.596 c 0,-8.979 -7.183,-14.433 -17.626,-14.433 -11.506,0 -17.426,4.656 -17.426,15.431 l 0,29.598 11.44,0 z m -43.698,0 11.507,0 0,-34.187 17.626,0 0,-10.044 -29.133,0 0,44.231 z" />
        </g>
      </g>
    </g>
  </g>
</svg>
