<?xml version="1.0" encoding="UTF-8" standalone="no"?>
<!-- Created with Inkscape (http://www.inkscape.org/) -->

<svg
   xmlns:dc="http://purl.org/dc/elements/1.1/"
   xmlns:cc="http://creativecommons.org/ns#"
   xmlns:rdf="http://www.w3.org/1999/02/22-rdf-syntax-ns#"
   xmlns:svg="http://www.w3.org/2000/svg"
   xmlns="http://www.w3.org/2000/svg"
   xmlns:sodipodi="http://sodipodi.sourceforge.net/DTD/sodipodi-0.dtd"
   xmlns:inkscape="http://www.inkscape.org/namespaces/inkscape"
   width="105mm"
   height="148mm"
   viewBox="0 0 372.04724 524.40944"
   id="svg3343"
   version="1.1"
   inkscape:version="0.91 r13725"
   sodipodi:docname="Signature.svg">
  <defs
     id="defs3345">
    <clipPath
       id="clipPath3361"
       clipPathUnits="userSpaceOnUse">
      <path
         inkscape:connector-curvature="0"
         id="path3363"
         d="m 52.5263,593.869 140.6107,0 0,189.94 -140.6107,0 0,-189.94 z" />
    </clipPath>
    <clipPath
       id="clipPath3369"
       clipPathUnits="userSpaceOnUse">
      <path
         inkscape:connector-curvature="0"
         id="path3371"
         d="m 0,841.89 595.28,0 L 595.28,0 0,0 0,841.89 Z" />
    </clipPath>
  </defs>
  <sodipodi:namedview
     id="base"
     pagecolor="#ffffff"
     bordercolor="#666666"
     borderopacity="1.0"
     inkscape:pageopacity="0.0"
     inkscape:pageshadow="2"
     inkscape:zoom="0.98994949"
     inkscape:cx="727.9626"
     inkscape:cy="492.30041"
     inkscape:document-units="px"
     inkscape:current-layer="layer1"
     showgrid="false"
     inkscape:window-width="2560"
     inkscape:window-height="1377"
     inkscape:window-x="-8"
     inkscape:window-y="-8"
     inkscape:window-maximized="1" />
  <metadata
     id="metadata3348">
    <rdf:RDF>
      <cc:Work
         rdf:about="">
        <dc:format>image/svg+xml</dc:format>
        <dc:type
           rdf:resource="http://purl.org/dc/dcmitype/StillImage" />
        <dc:title></dc:title>
      </cc:Work>
    </rdf:RDF>
  </metadata>
  <g
     inkscape:label="Layer 1"
     inkscape:groupmode="layer"
     id="layer1"
     transform="translate(0,-527.95276)">
    <g
       clip-path="url(#clipPath3361)"
       transform="matrix(1.25,0,0,-1.25,36.651128,1659.3886)"
       inkscape:label="Signature"
       id="g3359">
      <g
         id="g3365">
        <g
           clip-path="url(#clipPath3369)"
           id="g3367">
          <g
             transform="translate(55.7405,669.5192)"
             id="g3373">
            <path
               inkscape:connector-curvature="0"
               id="path3375"
               style="fill:#000000;fill-opacity:1;fill-rule:nonzero;stroke:none"
               d="M 0,0 C 0.001,-0.001 0.001,-0.001 0.002,-0.002 0.001,-0.001 0,0 0,0 0,0 0,0 0,0 M 5.317,1.881 C 5.276,1.839 5.233,1.807 5.193,1.757 5.198,1.723 5.275,1.819 5.317,1.881 M 2.445,1.11 C 2.518,1.012 2.6,0.919 2.676,0.822 3.291,0.118 2.617,1.613 2.445,1.11 m 43.444,-31.14 -0.001,0 c 0.013,0.012 0.029,0.027 0.046,0.044 -0.017,-0.016 -0.028,-0.027 -0.045,-0.044 M 11.474,2.694 C 11.382,2.657 11.288,2.617 11.192,2.564 11.167,2.267 11.74,2.769 11.474,2.694 m 58.907,9.372 0,-0.001 0,0 0,0.001 z M 36.926,54.504 c -1.671,-0.973 -3.303,-2.015 -4.945,-3.036 -0.379,-0.236 -1.697,-0.821 -1.764,-1.359 -0.132,-1.051 0.864,-0.787 1.314,-0.575 1.66,0.785 3.229,1.914 4.808,2.85 0.506,0.3 1.497,0.645 1.867,1.107 0.558,0.697 -0.464,1.489 -1.28,1.013 M 25.662,4.636 c 0.067,-0.091 0.141,-0.177 0.21,-0.267 0.356,-0.407 -0.061,0.435 -0.21,0.267 m 10.384,46.412 c -0.828,-0.491 -1.655,-0.981 -2.482,-1.471 -0.366,-0.217 -1.113,-0.504 -1.226,-0.967 -0.071,-0.289 0.246,-0.854 0.561,-0.886 0.111,-0.011 0.421,0.262 0.512,0.294 0.104,0.037 0.242,0.159 0.339,0.216 0.655,0.392 1.317,0.773 1.976,1.159 1.346,0.788 2.691,1.577 4.037,2.366 -0.311,2.133 -2.844,-0.193 -3.717,-0.711 m 9.964,-80.959 c -0.025,-0.025 -0.048,-0.047 -0.076,-0.075 0.023,0.022 0.048,0.047 0.076,0.075 m 68.045,57.398 c 0.536,0.252 1.026,0.348 1.603,0.194 0.283,-0.076 0.529,-0.388 0.863,-0.268 0.728,0.261 -0.335,0.92 -0.357,1.29 -0.057,0.953 0.711,0.574 1.251,0.724 0.348,-0.176 0.497,-0.085 0.447,0.273 0.024,0.159 0.016,0.319 -0.023,0.477 0.022,0.202 -0.073,0.412 0.038,0.607 0.229,0.402 1.131,0.371 1.161,0.863 0.052,0.823 -1.327,0.15 -1.77,0.013 -0.428,-0.133 -1.091,-0.223 -1.355,-0.551 -0.2,-0.249 -0.132,-0.74 -0.38,-0.954 -0.57,-0.493 -1.028,0.115 -1.621,0.443 -0.182,-0.543 -0.051,-0.82 0.017,-1.36 0.06,-0.471 -0.084,-0.673 -0.103,-1.142 -0.003,-0.086 -0.186,-0.804 0.229,-0.609 M 50.563,1.825 c -0.275,-0.931 0.896,-0.85 1.51,-0.769 -0.326,0.536 -0.916,0.729 -1.51,0.769 m 5.485,3.836 C 55.572,5.885 55.563,4.596 56.266,4.699 57.093,4.82 56.41,5.49 56.048,5.661 m -0.397,15.527 c -0.459,0.797 -3.078,-1.196 -3.525,-1.453 -0.445,-0.256 -3.484,-1.525 -3.026,-2.32 0.454,-0.788 2.968,1.133 3.406,1.385 0.455,0.262 3.607,1.587 3.145,2.388 M 55.216,3.63 c 0.015,0.847 -1.329,0.743 -1.236,-0.08 0.08,-0.705 1.222,-0.66 1.236,0.08 m -1.635,1.746 c -0.1,0.793 -1.282,0.729 -1.258,-0.075 0.024,-0.841 1.361,-0.738 1.258,0.075 m -2.322,1.745 c -0.643,0 -0.644,-1 0,-1 0.644,0 0.645,1 0,1 M 50.22,5.275 c 0.123,0.802 -1.242,0.9 -1.262,0.059 -0.02,-0.823 1.141,-0.845 1.262,-0.059 m -0.036,14.802 c 1.445,0.871 2.889,1.742 4.333,2.613 0.712,0.43 -0.061,0.929 -0.526,0.851 -0.138,-0.024 -0.32,-0.199 -0.443,-0.267 -0.839,-0.465 -1.648,-0.994 -2.469,-1.489 -0.974,-0.588 -1.948,-1.175 -2.922,-1.763 -0.386,-0.233 -1.124,-0.495 -1.411,-0.85 -0.73,-0.904 0.382,-0.908 0.97,-0.584 0.839,0.463 1.648,0.994 2.468,1.489 m -1.231,2.193 c 1.579,1.044 3.159,2.088 4.739,3.133 0.655,0.434 -0.068,0.952 -0.574,0.819 -0.184,-0.048 -0.406,-0.268 -0.562,-0.372 -0.925,-0.611 -1.849,-1.222 -2.773,-1.833 -1.02,-0.673 -2.039,-1.347 -3.058,-2.021 -0.396,-0.262 -1.18,-0.572 -1.454,-0.961 -0.757,-1.077 0.528,-0.825 1.072,-0.49 0.886,0.546 1.741,1.151 2.61,1.725 m -4.16,-11.332 c -0.589,0.305 -1.155,-0.537 -0.706,-1.007 0.698,-0.73 1.473,0.61 0.706,1.007 m 0.028,12.185 c 0.495,-0.787 3.3,1.489 3.75,1.773 0.453,0.286 3.716,1.828 3.217,2.619 -0.494,0.783 -3.188,-1.419 -3.632,-1.699 -0.463,-0.292 -3.835,-1.901 -3.335,-2.693 M 57.32,3.661 C 57.289,2.883 58.638,2.844 58.537,3.695 58.454,4.39 57.349,4.394 57.32,3.661 m 2.928,-1.869 c 0.243,0.817 -1.048,1.106 -1.22,0.311 -0.165,-0.76 0.988,-1.087 1.22,-0.311 m 2.574,-0.609 c 0.643,0 0.644,1 0,1 -0.643,0 -0.645,-1 0,-1 m 8.375,13.25 c -0.655,0 -0.602,-1.056 0.014,-1.036 0.561,0.019 0.647,1.036 -0.014,1.036 m -0.816,-2.368 c 0.004,-0.079 0.008,-0.16 0,0 -0.007,0.149 -0.003,0.076 0,0.001 -0.041,0.833 -1.323,0.745 -1.263,-0.071 0.058,-0.788 1.303,-0.734 1.263,0.07 M 69.884,8.808 c 0,0.725 -1.12,0.553 -1,-0.187 0.12,-0.736 1.101,-0.533 1,0.187 m 4.081,15.348 c -0.033,0.057 -0.083,0.143 0,0 0.036,-0.065 0.022,-0.039 0,-10e-4 0.439,-0.765 5.281,2.021 4.849,2.776 -0.437,0.763 -5.286,-2.012 -4.849,-2.775 m 4.632,0.611 c -1.329,-0.771 -2.657,-1.543 -3.986,-2.314 -0.644,-0.374 -0.01,-0.943 0.502,-0.865 0.108,0.016 0.24,0.152 0.338,0.196 0.75,0.336 1.46,0.848 2.171,1.26 0.863,0.501 1.725,1.002 2.587,1.502 0.292,0.17 1.144,0.469 1.293,0.829 0.383,0.931 -0.677,0.66 -1.068,0.458 -0.627,-0.323 -1.227,-0.712 -1.837,-1.066 M 81.275,23.3 c -0.478,0.693 -4.961,-2.314 -4.445,-3.062 0.516,-0.748 4.919,2.373 4.445,3.062 M 101.509,6.121 c 0.644,0 0.645,1 0,1 -0.643,0 -0.644,-1 0,-1 m 2.915,0.699 c -0.022,0.077 -0.043,0.153 0,0 0.008,-0.028 0.012,-0.041 0.016,-0.055 -0.005,0.016 -0.01,0.035 -0.016,0.055 0.205,-0.717 1.34,-0.442 1.142,0.314 -0.194,0.744 -1.339,0.381 -1.142,-0.314 m 1.658,-1.67 c 0.187,-0.799 1.489,-0.424 1.227,0.365 -0.26,0.78 -1.41,0.415 -1.227,-0.365 m 1.23,5.014 c -0.01,0.068 -0.022,0.143 0,-10e-4 0.017,-0.117 0.009,-0.062 0,0 0.146,-0.947 4.066,0.108 4.605,0.189 1.912,0.288 4.086,0.337 5.939,0.895 0.96,0.289 0.786,0.933 -0.23,0.977 -1.65,0.073 -3.499,-0.505 -5.12,-0.772 -0.727,-0.119 -5.336,-0.328 -5.194,-1.288 m 0.522,4.603 c -0.134,-1.02 6.293,-1.342 6.767,-1.397 0.87,-0.101 1.935,-0.458 2.802,-0.37 0.814,0.083 0.95,0.709 0.155,0.988 -1.615,0.566 -3.759,0.496 -5.454,0.72 -0.53,0.07 -4.146,0.988 -4.27,0.059 0.009,0.068 0.018,0.136 0,0 -0.018,-0.137 -0.009,-0.069 0,0 m 1.676,7.471 c 0.118,-0.553 1.127,-0.42 1.092,0.129 -0.035,0.544 -1.218,0.464 -1.092,-0.129 m 1.13,-5.104 c -0.153,0.079 0.001,-0.112 0.044,-0.143 -0.024,0.045 -0.049,0.09 -0.073,0.136 0.287,0.058 0.837,-0.258 1.21,-0.218 0.583,0.063 1.194,0.42 1.727,0.647 0.577,0.245 2.066,1.255 2.667,0.978 0.666,-0.305 0.585,-2.043 1.04,-2.609 0.628,-0.78 1.771,-0.61 2.156,0.305 0.471,1.118 -0.495,1.906 -0.945,2.796 -0.479,0.945 -0.467,1.948 -1.711,1.203 -2.029,-1.217 -3.669,-2.576 -6.071,-3.083 0.263,0.06 1.664,0.34 -0.044,-0.012 m 7.956,-6.573 c 0.027,-0.063 0.053,-0.126 0,10e-4 -0.054,0.127 -0.027,0.064 0,0 -0.361,0.852 -3.376,-0.877 -3.874,-1.087 -0.483,-0.203 -3.859,-1.17 -3.486,-2.008 0.38,-0.854 3.367,0.873 3.874,1.086 0.498,0.21 3.843,1.155 3.486,2.008 m -7.274,-4.565 c -0.643,0 -0.645,-1 0,-1 0.643,0 0.644,1 0,1 m -2,0.125 c -0.643,0 -0.645,-1 0,-1 0.643,0 0.644,1 0,1 m -0.365,-2.556 c 0.088,0.873 -1.249,0.846 -1.24,0.047 0.008,-0.69 1.168,-0.807 1.24,-0.047 m -1.01,3.368 c 0.643,0 0.644,1 0,1 -0.643,0 -0.645,-1 0,-1 M 90.94,0.208 c 0,-0.002 0,-0.003 0,-0.005 0,0.002 0,0.003 0,0.005 m 0.004,-0.031 c 0.131,-0.832 1.374,-0.586 1.191,0.229 -0.174,0.772 -1.307,0.511 -1.191,-0.229 m 2.509,1.13 c 0.01,0.005 -0.02,-0.01 -0.062,-0.031 0.022,0.011 0.034,0.017 0.062,0.031 0.639,0.327 0.293,1.174 -0.38,0.927 -0.672,-0.246 -0.259,-1.252 0.38,-0.927 m 0.821,-1.019 c 0.3,-0.688 1.418,-0.969 1.212,0.094 -0.176,0.905 -0.944,0.415 -1.212,-0.094 m 1.995,1.168 c 0.678,-0.382 1.383,0.579 0.618,0.875 -0.544,0.211 -1.31,-0.485 -0.618,-0.875 m 1.35,-1.235 c 0.352,-0.522 1.458,-1.014 1.227,0.159 -0.172,0.876 -1.02,0.433 -1.227,-0.159 m 2.097,1.163 c -0.073,0.036 -0.136,0.066 0,0 0.034,-0.016 0.051,-0.025 0.068,-0.033 -0.02,0.01 -0.043,0.021 -0.067,0.033 0.68,-0.328 1.27,0.717 0.561,1.102 C 99.517,2.9 98.955,1.752 99.716,1.384 m 2.992,0.624 c -0.088,-0.816 1.177,-0.887 1.259,-0.112 0.086,0.804 -1.167,0.953 -1.259,0.112 m -34.055,8.37 c -0.01,0.724 -1.151,0.784 -1.235,0.08 -0.098,-0.812 1.248,-0.961 1.235,-0.08 m -2.956,-8.82 c 0.643,0 0.644,1 0,1 -0.643,0 -0.645,-1 0,-1 m 1.714,-1.344 c 0.068,-0.699 1.169,-0.729 1.228,0.003 0.072,0.869 -1.308,0.811 -1.228,-0.003 m 3.38,-0.04 c -0.007,0.067 -0.014,0.125 0,0 m 0.001,-0.007 c 0.079,-0.7 1.273,-0.629 1.187,0.138 -0.084,0.74 -1.268,0.579 -1.187,-0.138 M 74.15,0.315 C 74.052,-0.386 75.235,-0.589 75.337,0.153 75.442,0.91 74.25,1.024 74.15,0.315 m 3.36,-0.143 c -0.008,0.071 -0.015,0.141 0,0 0.016,-0.146 0.008,-0.073 0,0 0.076,-0.701 1.27,-0.638 1.188,0.129 -0.08,0.74 -1.265,0.587 -1.188,-0.129 m 3.36,0 c 0.075,-0.701 1.27,-0.638 1.188,0.129 -0.08,0.74 -1.265,0.587 -1.188,-0.129 m 3.338,0.211 c 0.003,0.026 0.004,0.031 0,0 m -0.005,-0.04 c -0.095,-0.789 1.299,-0.885 1.239,-0.01 -0.05,0.732 -1.152,0.732 -1.239,0.01 M 43.01,9.283 C 42.188,9.487 41.925,8.235 42.733,8.078 43.497,7.929 43.831,9.08 43.01,9.283 m -0.79,6.037 c 0.135,-0.741 1.263,-0.627 1.134,0.121 -0.118,0.677 -1.281,0.691 -1.134,-0.121 m 0.767,-2.673 c -0.818,0.164 -1.031,-1.04 -0.274,-1.221 0.76,-0.182 1.136,1.05 0.274,1.221 m -1.21,4.482 c 0,-0.004 0,-0.007 0,-0.012 0,0.003 0,0.009 0,0.012 m -0.003,-0.12 c 0,-0.02 0,-0.026 0,0 m 0.002,0.061 c 0.019,0.856 -1.329,0.74 -1.236,-0.08 0.08,-0.706 1.22,-0.659 1.236,0.08 M 39.45,48.679 c -0.612,0.712 -3.876,-2.281 -2.882,-2.745 0.599,-0.28 3.383,2.167 2.882,2.745 m 27.024,-4.454 c 0.219,0.059 0.494,0.354 0.675,0.484 0.768,0.55 1.533,1.242 2.362,1.693 0.468,0.254 2.809,0.608 2.41,-0.342 -0.176,-0.42 -1.576,-0.998 -1.953,-1.237 -0.626,-0.396 -4.318,-2.118 -4.055,-3.009 0.302,-1.028 3.523,1.489 3.948,1.758 0.99,0.627 1.979,1.253 2.969,1.88 1.061,0.671 1.074,0.552 2.372,0.068 C 75.065,45.242 74.38,44.981 74.128,44.825 73.223,44.263 72.317,43.702 71.411,43.14 68.731,41.479 66.05,39.817 63.37,38.155 61.345,36.9 59.319,35.644 57.294,34.389 c -0.376,-0.233 -1.566,-1.152 -0.325,-1.29 0.395,-0.044 1.075,0.578 1.363,0.757 l 14.352,8.897 c 0.675,0.418 1.346,0.842 2.024,1.255 0.198,0.12 0.392,0.236 0.593,0.353 0.517,0.302 1.032,0.663 1.64,0.364 0.21,-0.103 0.698,-0.49 0.638,-0.756 -0.047,-0.204 -1.07,-0.657 -1.234,-0.758 -0.976,-0.599 -1.952,-1.199 -2.929,-1.799 -4.666,-2.866 -9.444,-5.606 -14.022,-8.613 -0.535,-0.351 -1.309,-1.437 -0.018,-1.185 0.337,0.066 0.785,0.482 1.07,0.657 2.18,1.339 4.359,2.678 6.539,4.017 l 8.019,4.926 c 0.901,0.553 1.801,1.106 2.702,1.659 0.27,0.166 0.804,0.66 1.128,0.693 0.72,0.074 1.373,-0.752 0.941,-1.309 -0.103,-0.133 -0.403,-0.237 -0.541,-0.324 -0.84,-0.532 -1.71,-1.023 -2.563,-1.533 -2.648,-1.584 -5.296,-3.168 -7.943,-4.751 -1.173,-0.702 -2.347,-1.404 -3.52,-2.105 -0.62,-0.371 -1.438,-0.704 -1.981,-1.185 -0.616,-0.547 -0.279,-1.145 0.505,-0.864 0.618,0.221 1.243,0.743 1.804,1.079 4.874,2.916 9.749,5.831 14.624,8.747 0.256,0.153 0.984,0.786 1.299,0.777 0.389,-0.011 0.854,-0.591 0.737,-0.9 -0.052,-0.136 -0.575,-0.351 -0.699,-0.426 l -7.143,-4.365 c -1.22,-0.745 -2.439,-1.49 -3.659,-2.235 -0.676,-0.413 -1.66,-0.8 -2.226,-1.36 -0.647,-0.641 -0.129,-1.103 0.604,-0.803 0.789,0.323 1.552,0.948 2.277,1.391 2.603,1.59 5.206,3.181 7.809,4.771 l 3.028,1.85 c 0.627,0.383 1.025,0.84 1.649,0.105 0.727,-0.855 -0.602,-1.156 -1.315,-1.573 -1.293,-0.756 -2.585,-1.511 -3.878,-2.267 -0.987,-0.577 -2.267,-1.085 -3.135,-1.833 -0.796,-0.685 -0.175,-1.125 0.631,-0.789 2.485,1.035 4.857,2.839 7.182,4.198 0.62,0.362 1.518,1.279 2.202,0.717 1.147,-0.942 -0.948,-1.679 -1.579,-2.043 -1.213,-0.7 -2.475,-1.353 -3.655,-2.109 -0.936,-0.6 -0.521,-1.394 0.475,-0.88 1.191,0.613 2.333,1.346 3.493,2.015 0.616,0.355 2.035,1.583 2.727,1.295 1.741,-0.723 -1.36,-1.988 -1.757,-2.208 -0.206,-0.114 -3.468,-1.811 -1.728,-2.026 0.299,-0.037 0.827,0.387 1.047,0.508 0.69,0.381 1.379,0.762 2.069,1.143 0.366,0.202 1.095,0.806 1.526,0.843 0.727,0.063 1.693,-1.215 2.251,-1.703 1.02,-0.893 2.059,-1.764 3.039,-2.702 1.013,-0.97 1.842,-2.235 3.006,-3.03 2.023,-1.38 4.648,-0.95 6.817,-0.167 1.275,0.46 2.419,1.166 3.581,1.853 0.527,0.311 3.349,2.392 3.875,1.97 0.749,-0.602 -3.415,-5.869 -3.966,-6.554 -0.39,-0.486 -0.826,-1.141 -1.321,-1.524 -0.251,-0.195 -1.201,-0.352 -1.352,-0.604 -0.846,-1.416 1.583,-0.542 1.8,-0.587 0.386,-0.081 0.653,-0.834 1.208,-0.395 0.526,0.416 0.034,0.675 0.007,1.126 -0.089,1.482 1.359,-0.319 1.842,0.819 0.182,0.428 -0.367,0.956 -0.123,1.314 0.31,0.453 0.729,-0.069 1.079,-0.08 1.557,-0.051 0.213,1.456 0.315,2.105 0.077,0.494 1.374,2.774 1.567,1.655 0.065,-0.383 -0.279,-0.633 -0.441,-0.932 -0.407,-0.748 -0.036,-0.794 0.269,-1.519 0.226,-0.539 0.285,-0.953 0.027,-1.48 -0.153,-0.313 -0.572,-0.528 -0.524,-0.935 0.057,-0.474 0.563,-0.524 0.908,-0.716 0.439,-0.244 0.82,-0.905 1.295,-0.952 0.512,-0.051 0.67,0.437 0.99,0.682 0.299,0.23 1.056,0.333 1.268,0.715 0.332,0.599 -0.122,0.82 -0.575,0.974 -0.779,0.264 -0.966,-0.284 -0.905,0.909 0.036,0.694 -0.069,0.916 0.682,0.938 0.413,0.012 0.868,-0.33 1.137,-0.608 0.314,-0.324 0.424,-0.603 0.789,-0.908 0.512,-0.426 0.956,-0.809 1.352,-1.352 1.564,-2.146 2.418,-4.704 3.775,-6.972 0.535,-0.895 1.725,-2.045 1.455,-3.071 -0.284,-1.078 -1.278,-2.536 -2.297,-2.926 -0.785,-0.301 -1.415,-0.419 -2.155,-0.803 -1.124,-0.583 -1.769,-0.885 -0.402,-1.769 -0.574,-0.443 -1.153,-0.948 -1.783,-1.307 -0.254,-0.145 -0.605,-0.183 -0.833,-0.324 -0.267,-0.166 -0.347,-0.355 -0.621,-0.576 -0.899,-0.726 -1.99,1.069 -2.406,-0.475 -0.019,-0.071 0.06,-0.707 -0.004,-0.78 -0.114,-0.131 -0.753,-0.098 -0.953,-0.175 -0.779,-0.298 -0.641,-0.701 -1.239,-1.228 -0.461,-0.406 -1.223,-0.529 -1.793,-0.726 -0.756,-0.262 -1.11,-0.262 -1.721,0.284 -0.932,0.835 -1.441,1.864 -2.483,2.613 -0.672,0.483 -0.857,0.777 -1.63,0.626 -0.787,-0.152 -1.179,-0.534 -2.04,-0.479 -1.493,0.095 -1.53,0.803 -2.342,1.89 -0.866,1.16 -2.048,2.091 -3.191,2.963 -1.078,0.822 -2.224,1.56 -3.447,2.151 -1.16,0.562 -3.101,0.833 -3.937,1.852 -0.881,1.072 -0.844,3.182 -0.616,4.439 0.268,1.482 0.843,2.823 1.33,4.236 0.152,0.439 0.961,2.569 -0.206,2.175 -0.467,-0.159 -0.455,-1.005 -0.566,-1.394 -0.226,-0.795 -0.594,-1.54 -0.878,-2.314 -0.867,-2.366 -1.538,-5.486 -0.501,-7.908 0.56,-1.308 2.003,-2.003 3.176,-2.676 1.351,-0.777 2.658,-1.616 3.888,-2.574 2.398,-1.865 4.089,-4.568 7.464,-4.346 -0.393,-1.129 1.727,-0.985 0.884,0.081 0.477,0.051 1.107,0.186 1.579,0.043 0.407,-0.123 0.744,-0.541 1.059,-0.868 0.845,-0.88 0.812,-1.519 -0.185,-2.304 -0.309,-0.243 -0.665,-0.471 -1.061,-0.534 -0.669,-0.106 -0.667,0.206 -1.227,0.475 -1.099,0.53 -0.991,-0.615 -1.578,-1.126 -0.835,-0.727 -2.374,-0.373 -3.351,-0.364 -1.288,0.012 -2.579,-0.05 -3.869,-0.045 -1.063,0.004 -2.19,-0.31 -3.22,0.065 -1.453,0.529 -0.227,1.306 0.003,2.119 0.2,0.708 0.064,0.306 -0.44,0.728 -0.374,0.313 -0.544,0.738 -0.827,1.14 -0.552,0.78 -1.289,1.368 -2.206,1.66 -2,0.638 -4.435,-0.061 -6.442,-0.38 -1.213,-0.192 -2.097,-0.294 -3.296,-0.038 -1.202,0.256 -2.272,0.645 -3.421,1.057 -0.417,0.15 -0.847,0.191 -1.269,0.314 -0.405,0.118 -0.778,0.446 -1.162,0.52 -0.406,0.08 -0.824,-0.149 -1.247,-0.058 -0.605,0.13 -0.73,0.488 -1.137,0.877 -0.38,0.364 -0.828,0.278 -1.216,0.564 -0.419,0.309 -0.396,0.966 -0.646,1.48 -0.348,0.714 -0.325,0.935 -0.066,1.703 0.16,0.475 0.366,0.943 0.662,1.351 0.29,0.399 0.966,0.693 1.187,1.074 0.108,0.185 0.036,0.746 0.083,0.921 0.149,0.556 -0.035,0.311 0.448,0.49 0.566,0.209 1.076,-0.18 1.244,0.622 0.049,0.234 -0.167,0.363 -0.216,0.571 -0.15,0.644 -0.188,0.458 0.022,1.074 0.085,-0.039 1.007,-0.534 1.098,-0.495 0.329,0.139 0.117,0.724 0.059,0.912 -0.08,0.258 -0.375,0.432 -0.472,0.694 -0.121,0.328 -0.053,0.716 -0.102,1.057 -0.23,1.589 -1.295,3.328 -2.563,4.319 -0.472,0.369 -1.137,0.494 -1.539,0.95 -0.256,0.291 -0.361,0.99 -0.927,0.696 -0.672,-0.349 0.083,-1.292 0.252,-1.461 -0.001,10e-4 -0.001,0.002 -0.001,0.002 0.116,0.058 1.296,-0.771 1.416,-0.86 0.806,-0.598 1.505,-1.513 1.895,-2.437 0.445,-1.055 0.382,-1.653 -0.398,-2.495 -0.793,-0.856 -1.643,-1.616 -2.362,-2.544 -2.218,-2.864 -4.745,-7.406 -0.631,-9.982 0.831,-0.52 1.771,-0.606 2.726,-0.701 1.344,-0.133 2.669,-0.319 3.994,-0.58 2.379,-0.466 4.638,-1.028 7.068,-0.542 1.195,0.239 2.281,0.444 3.509,0.444 0.912,0.001 2.646,0.16 3.288,-0.704 0.565,-0.76 -0.726,-1.254 -0.289,-1.818 0.244,-0.315 1.003,0.056 1.212,-0.189 0.348,-0.408 -0.374,-1.022 -0.57,-1.265 -0.525,-0.651 -1.134,-1.78 -2.059,-1.819 -0.839,-0.035 -1.082,1.302 -1.919,0.875 -0.733,-0.375 -0.79,-1.432 -1.924,-0.75 -0.301,0.181 -0.412,0.582 -0.739,0.715 -0.593,0.241 -0.916,-0.184 -1.442,-0.405 -0.927,-0.391 -1.026,0.077 -1.877,0.388 -0.911,0.332 -1.408,-0.726 -2.395,-0.507 -0.393,0.087 -0.656,0.445 -1.026,0.554 -0.529,0.155 -0.812,-0.093 -1.355,-0.176 -0.818,-0.124 -1.522,0.255 -2.321,0.277 -1.086,0.031 -2.074,-0.105 -3.185,0.015 -0.447,0.049 -0.995,-0.116 -1.253,0.203 -0.31,0.383 0.184,1.003 -0.345,1.355 -0.362,0.242 -0.668,0.121 -0.896,-0.263 -0.315,-0.532 0.159,-0.898 -0.593,-1.148 -0.112,-0.038 -1.057,-0.014 -1.114,0.021 -0.434,0.263 -0.292,1.078 -0.67,1.362 C 60.894,1.366 60.641,-0.04 60.044,-0.269 59.011,-0.668 58.898,0.52 58.24,0.89 57.838,1.116 57.271,0.74 56.967,1.131 56.717,1.453 57.099,1.877 56.872,2.226 56.113,3.395 55.645,1.657 55.242,1.446 54.316,0.96 53.923,2.025 53.357,2.39 52.977,2.635 52.587,2.44 52.21,2.591 51.54,2.859 52.122,3.284 51.789,3.863 51.53,4.313 51.324,4.268 50.881,4.094 50.215,3.832 50.437,3.362 49.647,3.66 49.081,3.873 47.341,5.062 47.314,5.704 47.285,6.378 48.583,6.312 48.315,6.95 48.182,7.266 47.631,7.228 47.373,7.171 46.895,7.065 46.658,6.66 46.271,7.263 45.933,7.791 46.877,8.691 45.87,8.983 44.775,9.301 44.849,8.275 44.46,7.777 43.895,7.052 43.621,6.605 44.75,6.364 45.176,6.274 45.257,6.606 45.532,6.194 45.729,5.897 45.462,5.467 45.621,5.168 45.929,4.589 46.512,4.993 46.947,4.663 47.448,4.282 47.056,3.519 47.518,3.141 48.003,2.745 49.081,3.38 48.857,2.327 48.577,1.014 47.079,2.267 46.5,2.49 45.992,2.685 45.44,2.565 45.211,3.015 45.009,3.411 45.32,3.95 44.793,4.216 44.116,4.558 43.211,3.439 43.313,4.73 c 0.033,0.408 0.284,0.609 0.023,0.976 -0.268,0.377 -0.966,0.252 -1.242,0.573 -0.582,0.675 -0.856,2.635 -0.575,3.376 0.489,1.292 -0.317,1.025 -0.758,2.025 -0.548,1.244 0.529,0.932 0.902,1.667 0.324,0.639 -0.164,0.888 -0.6,0.989 -0.642,0.148 -0.714,-0.217 -0.945,0.309 -0.175,0.398 0.049,0.816 -0.179,1.224 -0.351,0.627 -1.457,1.213 -0.862,1.999 0.337,0.444 1.249,0.625 0.373,1.256 -0.238,0.171 -0.748,0.03 -0.929,0.207 -0.31,0.303 -0.303,1.699 -0.36,2.11 -0.356,2.546 -0.411,5.142 0.106,7.671 0.131,0.64 0.076,0.816 0.735,0.788 0.439,-0.02 0.91,-0.346 1.38,-0.382 0.383,-0.029 1.306,-0.022 1.615,0.288 0.488,0.489 -0.113,0.581 -0.476,0.935 -0.705,0.69 -1.277,1.527 -2.012,2.22 -0.865,0.817 -1.553,1.559 -2.076,2.642 -1.054,2.18 -1.477,4.524 -2.079,6.848 -0.244,0.944 -0.548,1.867 -0.983,2.74 -0.477,0.957 -0.833,1.489 0.157,2.202 1.114,0.802 2.325,1.501 3.51,2.196 0.705,0.413 1.919,1.525 2.671,0.823 0.699,-0.653 1.158,-2 1.568,-2.863 0.515,-1.081 0.89,-2.219 1.385,-3.308 0.453,-0.999 1.008,-2.017 1.723,-2.855 0.968,-1.134 1.684,-0.934 2.93,-0.404 4.387,1.865 8.919,4.026 13.539,5.229 1.006,0.262 1.98,0.348 3,0.49 1.216,0.17 2.154,0.615 3.404,0.199 -0.289,-0.77 -1.696,-1.382 -2.366,-1.862 -0.612,-0.438 0.085,-0.946 0.582,-0.813 M 23.064,4.26 C 23.005,4.19 22.944,4.125 22.892,4.033 23.035,3.86 23.161,4.3 23.064,4.26 m 23.347,-33.783 c -0.049,-0.047 -0.121,-0.117 -0.216,-0.21 0.08,0.078 0.157,0.153 0.216,0.21 m 63.395,5.852 c 0.043,0.024 0.051,0.029 0,0 m 8.79,34.233 c 0,0 0,0 0,-10e-4 0,0 0,10e-4 0,10e-4 0,0 0,0 0,0 m -8.923,-34.308 c 0.023,0.013 0.045,0.026 0.065,0.037 -0.02,-0.011 -0.038,-0.021 -0.065,-0.037 -0.136,-0.076 -0.212,-0.119 -0.254,-0.142 0.056,0.031 0.16,0.09 0.254,0.142 -1.105,-0.62 -2.279,-1.748 -2.136,-3.126 0.137,-1.326 1.187,-2.075 2.477,-2.042 4.345,0.11 2.123,6.551 -0.341,5.168 m -1.839,38.513 c 0,0 0,0 0,0 0,0 0,0 0,0 z M 120.196,1.34 c -0.05,-0.023 -0.1,-0.037 -0.149,-0.066 -0.005,-0.042 0.009,-0.085 0.012,-0.128 0.065,-0.114 0.327,0.238 0.137,0.194 m -0.07,-7.203 c 0.265,-0.241 0.521,-0.492 0.791,-0.726 0.375,0 -1.186,1.16 -0.791,0.726 M 77.51,0.172 c 0,0 0,0 0,0 l 0,0 c 0,0 0,0 0,0 m 22.206,1.212 c 0,0 0,0 0.001,0 -0.001,0 -0.001,0 -0.001,0 0,0 0,0 0,0 M 46.01,-29.911 c 0.057,0.054 0.12,0.116 0.185,0.178 -0.053,-0.051 -0.116,-0.112 -0.185,-0.178 M 97.619,0.221 c 0.115,-0.171 0.039,0.111 0,0 m 35.02,37.526 -2.081,-0.01 c -0.145,0 -0.279,0.067 -0.359,0.179 l -1.146,1.624 c -0.201,0.284 -0.663,0.218 -0.783,-0.111 l -0.682,-1.884 c -0.048,-0.131 -0.159,-0.233 -0.299,-0.272 l -2.007,-0.572 c -0.352,-0.1 -0.44,-0.537 -0.149,-0.739 l 1.66,-1.155 c 0.115,-0.08 0.18,-0.21 0.174,-0.347 l -0.095,-1.977 c -0.016,-0.346 0.392,-0.55 0.691,-0.345 l 1.708,1.169 c 0.119,0.082 0.271,0.103 0.407,0.058 l 1.949,-0.65 c 0.341,-0.114 0.681,0.197 0.575,0.525 l -0.604,1.878 c -0.042,0.131 -0.013,0.274 0.077,0.383 l 1.299,1.576 c 0.228,0.275 0.03,0.671 -0.335,0.67 m -5.043,-38.688 c -0.643,0.637 -1.345,1.577 -2.19,1.945 -0.355,0.155 -2.102,0.578 -1.707,-0.372 0.373,-0.9 1.788,-1.878 2.458,-2.547 0.789,-0.789 1.579,-1.577 2.369,-2.364 0.69,-0.687 1.521,-1.864 2.513,-2.141 0.331,-0.093 0.939,-0.166 1.207,0.1 0.389,0.386 0.086,0.531 -0.152,0.877 -1.134,1.644 -3.079,3.095 -4.498,4.502 m 0.075,-3.437 c -0.862,0.89 -1.744,1.761 -2.625,2.631 -1.104,1.09 -3.007,3.944 -4.85,3.087 -0.035,-0.007 -0.082,-0.027 -0.149,-0.066 -0.009,-0.068 -10e-4,-0.105 0.012,-0.128 0.053,-0.745 1.271,-1.601 1.688,-2.018 0.764,-0.765 1.529,-1.529 2.295,-2.292 0.776,-0.773 3.387,-4.323 4.793,-3.189 0.717,0.579 -0.728,1.525 -1.164,1.975 m 0.857,-17.635 c -0.177,1.389 -3.45,0.971 -4.433,0.84 -0.957,-0.127 -1.851,-0.442 -2.719,-0.854 -1.042,-0.494 -0.968,-0.531 -1.914,0.134 -1.593,1.121 -1.933,-1.417 -2.31,-2.556 -0.333,-1.006 -0.665,-2.012 -0.996,-3.018 -0.19,-0.578 -0.924,-1.855 -0.742,-2.471 0.639,-2.166 2.279,1.508 2.585,2.063 0.787,1.426 1.741,2.977 3.077,3.952 1.173,0.855 2.654,1.377 4.105,1.428 0.867,0.031 3.552,-1.129 3.347,0.482 m -8.402,16.15 c 0.105,-0.115 0.339,-0.335 0.791,-0.726 0.587,0 1.716,-0.315 1.579,0.504 -0.088,0.526 -1.058,1.195 -1.427,1.564 -1.184,1.188 -2.369,2.374 -3.556,3.56 -0.926,0.925 -2.022,2.543 -3.287,2.976 -0.407,0.139 -1.475,0.231 -1.439,-0.406 0.007,-0.131 0.313,-0.383 0.379,-0.475 1.004,-1.384 2.418,-2.589 3.623,-3.793 1.089,-1.088 2.196,-2.167 3.337,-3.204 m -3.013,6.284 c 0.254,-0.254 0.437,-0.437 0.56,-0.56 -0.175,0.176 -0.407,0.407 -0.56,0.56 m -0.141,0.141 c -0.014,0.014 -0.018,0.019 0,0 0.028,-0.027 0.046,-0.046 0.072,-0.072 -0.007,0.007 -0.015,0.015 -0.021,0.021 1.669,-1.668 3.338,-3.336 5.009,-5.003 0.687,-0.685 1.471,-1.849 2.474,-2.055 0.806,-0.165 1.452,0.169 0.947,0.979 -0.56,0.899 -1.689,1.718 -2.445,2.472 -0.844,0.841 -1.689,1.682 -2.535,2.522 -0.621,0.617 -1.39,1.755 -2.262,2.051 -0.708,0.241 -2.159,0.004 -1.239,-0.915 m -3.082,-25.739 c -0.116,0.544 -0.202,1.23 -0.521,1.661 -0.326,0.441 -1.024,0.855 -1.491,1.12 0.154,-0.087 0.281,-0.16 -0.002,0.001 -0.404,0.23 -0.185,0.106 -0.001,0.001 -3.955,2.247 -8.33,-5.307 -3.788,-7.565 1.874,-0.931 4.514,-0.245 5.535,1.618 0.551,1.005 0.498,2.077 0.268,3.164 m -8.229,3.568 c 0.244,0.201 1.071,0.224 1.367,0.284 1.089,0.22 2.158,0.04 3.228,0.233 0.513,0.092 2.504,0.549 1.903,1.445 -0.466,0.695 -2.462,0.174 -3.073,0.106 -0.729,-0.08 -2.294,-0.703 -2.612,0.244 -0.359,1.069 1.094,2.715 1.182,3.778 0.078,0.948 -0.783,1.37 -1.363,0.469 -0.495,-0.769 -0.707,-1.907 -0.988,-2.762 -0.402,-1.222 -0.477,-2.178 -1.81,-2.509 -0.688,-0.17 -2.945,-0.014 -2.794,-1.147 -0.01,0.08 -0.023,0.174 0,0 0.017,-0.124 0.009,-0.067 0,0 0.152,-1.131 2.18,-0.024 2.747,-0.595 0.65,-0.656 -0.386,-2.491 -0.606,-3.151 -0.384,-1.146 -0.792,-2.287 -1.151,-3.441 -0.182,-0.585 -0.62,-2.693 0.695,-1.813 0.823,0.552 1.169,2.837 1.464,3.723 0.382,1.147 0.74,2.305 1.148,3.443 0.139,0.387 0.356,1.44 0.663,1.693 m -12.504,-7.873 c 0.096,0.054 0.149,0.084 0,0 m 7.042,6.725 c -0.098,0.676 -0.286,0.656 -0.915,0.727 -0.848,0.097 -1.947,0.128 -2.761,-0.184 -1.785,-0.683 -0.763,-2.198 -0.004,-3.26 0.74,-1.035 1.753,-2.705 0.516,-3.778 -1.259,-1.092 -2.623,0.475 -4.056,-0.33 0.045,0.025 0.115,0.065 0.174,0.098 -0.043,-0.024 -0.095,-0.053 -0.175,-0.098 -0.066,-0.038 -0.048,-0.028 0,0 -0.926,-0.52 -0.046,-1.236 0.553,-1.418 0.802,-0.242 1.788,-0.214 2.603,-0.09 1.267,0.193 2.482,0.899 2.881,2.19 0.53,1.717 -0.82,3.007 -1.389,4.484 -0.702,1.822 1.789,0.193 2.43,0.912 0.178,0.2 0.179,0.504 0.143,0.747 m -8.214,-0.358 c -0.129,0.47 -0.404,0.718 -0.914,0.479 -0.536,-0.251 -0.747,-1.7 -0.892,-2.192 -0.257,-0.866 -0.51,-1.733 -0.76,-2.601 -0.185,-0.644 -0.765,-1.845 -0.508,-2.522 0.665,-1.745 1.731,1.306 1.844,1.781 0.188,0.788 0.382,1.574 0.612,2.351 0.226,0.764 0.84,1.897 0.618,2.704 m -4.854,0.635 c -0.823,1.132 -3.135,0.853 -3.978,-0.099 -1.184,-1.34 -0.25,-2.539 0.645,-3.654 0.604,-0.754 1.646,-3.598 -0.33,-2.668 -0.76,0.358 -0.921,0.755 -1.836,0.49 -0.522,-0.151 -1.306,-0.719 -0.569,-1.302 0.947,-0.751 3.163,-1.289 4.286,-0.656 1.385,0.78 0.854,2.868 0.282,3.991 -0.384,0.755 -2.679,2.943 -0.555,3.091 0.613,0.043 1.262,-0.738 1.804,-0.56 0.569,0.187 0.559,0.942 0.251,1.367 m 4.506,5.171 c -0.064,-0.933 1.428,-1.155 1.653,-0.251 0.266,1.075 -1.574,1.391 -1.653,0.251 M 77.672,-29.441 c -1.293,-0.473 -2.153,-1.217 -3.621,-1.017 -0.949,0.129 -1.806,0.498 -1.677,1.582 0.18,1.507 1.342,1.603 2.562,1.882 1.037,0.238 2.445,0.41 3.184,1.278 0.722,0.846 0.292,2.041 -0.604,2.581 -1.89,1.14 -4.3,-1.463 -5.302,-2.815 -0.642,-0.866 -0.868,-1.778 -1.314,-2.726 -0.226,-0.479 -0.189,-0.754 -0.712,-0.552 -0.341,0.133 -0.83,0.944 -1.037,1.209 -0.59,0.754 -1.648,1.866 -1.891,2.806 -0.302,1.163 1.47,1.311 2.351,1.697 1.563,0.686 5.343,2.258 4.89,4.511 -0.503,2.507 -5.202,3.064 -7.173,2.99 -1.432,-0.054 -2.828,-0.401 -4.13,-0.995 -0.669,-0.305 -3.406,-1.5 -2.994,-2.427 0.57,-1.28 2.325,0.443 3.017,0.811 0.6,0.32 2.914,1.57 3.419,0.623 0.224,-0.418 -0.322,-1.58 -0.449,-2.01 -0.203,-0.684 -0.391,-1.493 -0.744,-2.122 -0.467,-0.834 -2.576,-0.952 -1.667,-2.13 0.542,-0.703 0.789,-0.501 0.54,-1.537 -0.161,-0.668 -0.412,-1.266 -0.726,-1.876 -0.536,-1.041 -1.282,-2.811 -1.066,-4.018 0.087,-0.486 0.424,-0.833 0.94,-0.646 0.519,0.188 0.642,1.232 0.794,1.681 0.482,1.429 0.965,2.842 1.529,4.24 1.297,-0.655 2.009,-2.23 2.816,-3.407 0.938,-1.368 1.9,-2.722 2.781,-4.128 0.298,-0.477 0.636,-1.536 1.153,-1.784 0.496,-0.238 1.115,0.117 1.203,0.654 0.094,0.566 -0.584,1.267 -0.877,1.676 -0.499,0.695 -0.864,1.164 -0.871,2.04 1.173,-0.411 2.306,-0.743 3.564,-0.53 0.61,0.103 1.17,0.328 1.716,0.614 0.458,0.24 1.344,0.522 1.692,0.887 0.894,0.937 -0.513,1.244 -1.296,0.958 m -25.923,4.654 c -0.801,0.219 -2.274,-1.747 -2.772,-2.232 -1.029,-1.004 -2.056,-2.01 -3.088,-3.011 -0.012,-0.011 -0.016,-0.014 -0.022,-0.021 0.006,0.006 0.012,0.012 0.021,0.021 -0.164,-0.159 -0.93,-1.025 -1.13,-1.007 -0.336,0.029 -0.763,1.006 -0.876,1.221 -0.648,1.245 -1.196,2.545 -1.805,3.809 -0.227,0.47 -1.339,3.115 -2.038,1.557 -0.332,-0.74 0.975,-2.69 1.314,-3.401 0.579,-1.214 1.171,-2.424 1.685,-3.669 0.344,-0.835 0.418,-0.941 -0.145,-1.646 -0.361,-0.45 -0.748,-0.876 -1.115,-1.322 -0.601,-0.729 -4.488,-5.323 -3.166,-6.032 0.876,-0.47 1.772,1.594 2.114,2.129 0.719,1.127 1.509,2.203 2.376,3.221 1.673,1.962 3.55,3.883 5.404,5.682 0.937,0.91 1.88,1.81 2.794,2.743 0.368,0.376 1.733,1.605 0.449,1.958 m -13.834,-6.841 c 0.003,-0.003 0.007,-0.008 0.01,-0.011 -0.004,0.004 -0.005,0.005 -0.01,0.011 m -0.116,0.117 c -0.345,0.35 -0.9,0.319 -1.262,0.613 -0.386,0.312 -0.789,1.189 -1.022,1.632 -0.349,0.664 -0.509,0.838 -0.023,1.393 0.353,0.403 1.044,0.663 1.496,0.941 0.59,0.362 2.073,0.94 1.666,1.822 -0.51,1.107 -2.146,-0.352 -2.72,-0.723 -0.543,-0.35 -1.832,-1.465 -2.311,-0.557 -0.415,0.786 0.76,2.864 1.037,3.644 0.192,0.54 1.185,2.269 0.26,2.669 -1.032,0.446 -1.645,-2.261 -1.879,-2.904 -0.864,-2.375 -2.011,-4.771 -2.7,-7.185 -0.167,-0.585 -1.001,-2.448 -0.44,-2.951 0.722,-0.649 1.386,0.638 1.614,1.142 0.391,0.868 0.402,2.584 1.663,2.71 0.941,0.094 1.56,-1.547 1.982,-2.196 0.386,-0.593 1.195,-2.369 2.074,-2.269 0.812,0.092 1.07,1.707 0.565,2.219 m -7.65,27.127 c -0.098,0.718 -1.896,1.976 -2.413,2.494 -0.909,0.912 -1.818,1.823 -2.728,2.733 C 24.111,1.74 23.245,2.696 22.297,3.54 21.909,3.885 21.517,4.242 20.959,4.22 20.713,4.211 19.867,3.974 20.06,3.547 20.495,2.58 21.683,1.771 22.427,1.029 c 0.911,-0.909 1.823,-1.817 2.735,-2.725 0.851,-0.847 1.732,-2.07 2.739,-2.722 0.528,-0.342 2.393,-1.028 2.248,0.034 m -3.787,0.374 c 0.01,0.575 -1.815,1.952 -2.279,2.423 -0.881,0.895 -1.772,1.78 -2.662,2.665 -0.384,0.381 -0.768,0.763 -1.151,1.145 -0.375,0.374 -1.048,1.366 -1.536,1.541 -0.361,0.131 -2.122,-0.042 -1.586,-0.704 1.582,-1.957 3.541,-3.67 5.325,-5.446 0.723,-0.721 1.443,-1.674 2.43,-1.954 0.601,-0.171 1.445,-0.413 1.459,0.33 m -9.176,7.023 c 0.034,-0.042 0.024,-0.03 0,0 M 17.116,3.1 c -0.007,0.008 -0.008,0.009 0,0 m 4.66,-5.807 c -1.276,1.368 -2.6,2.694 -3.948,3.991 -0.575,0.554 -1.152,1.204 -1.801,1.674 -0.384,0.278 -0.408,0.374 -0.926,0.392 -0.188,0.007 -1.274,-0.132 -0.938,-0.614 1.642,-2.345 4.19,-4.416 6.253,-6.406 0.372,-0.359 2.1,-1.754 2.503,-0.558 0.133,0.396 -0.852,1.21 -1.143,1.521 m -2.025,-1.549 c 0.121,0.602 -1.426,1.677 -1.822,2.074 -0.777,0.779 -1.554,1.557 -2.332,2.336 -1.144,1.145 -2.379,3.233 -4.123,2.54 -0.056,-0.016 -0.136,-0.049 -0.282,-0.13 -0.066,-0.783 1.344,-1.722 1.801,-2.179 0.785,-0.784 1.571,-1.568 2.355,-2.354 0.35,-0.35 3.986,-4.374 4.403,-2.287 m -3.244,-0.012 c 0.022,0.574 -1.741,1.912 -2.13,2.302 -0.773,0.776 -1.548,1.55 -2.323,2.323 C 11.45,0.959 10.855,1.759 10.131,2.222 9.668,2.518 9.608,2.557 9.035,2.461 8.709,2.406 8.131,2.45 8.223,1.951 8.359,1.21 9.877,0.143 10.386,-0.368 c 0.767,-0.769 1.535,-1.537 2.303,-2.304 0.639,-0.64 1.284,-1.561 2.099,-1.972 0.512,-0.258 1.688,-0.412 1.719,0.376 m -3.343,-0.081 c 0.083,0.483 -1.285,1.501 -1.594,1.811 -0.679,0.683 -1.359,1.365 -2.041,2.046 C 8.732,0.305 6.632,3.211 5.317,1.881 5.362,1.949 5.367,1.977 5.193,1.757 5.297,1.044 6.538,0.208 7.051,-0.317 7.72,-1.001 8.389,-1.684 9.062,-2.365 9.446,-2.754 12.808,-6.404 13.164,-4.349 M 9.788,-4.665 C 9.344,-2.993 7.107,-1.484 5.885,-0.276 5.387,0.216 3.112,3.057 2.445,1.11 2.539,0.984 2.612,0.895 2.676,0.822 3.536,-0.275 4.538,-1.278 5.525,-2.255 6.104,-2.829 6.694,-3.393 7.3,-3.94 8.172,-4.728 8.599,-4.665 9.788,-4.665 M 6.059,-3.747 C 5.183,-2.46 3.666,-1.321 2.555,-0.223 2.119,0.208 1.604,0.902 0.958,0.974 0.557,1.018 -0.577,0.621 0,0 c -0.033,0.035 -0.041,0.044 0,0 0.055,-0.059 0.097,-0.104 0.143,-0.154 -0.061,0.066 -0.111,0.12 -0.141,0.152 1.155,-1.243 2.335,-2.466 3.571,-3.63 0.729,-0.687 0.991,-1.026 1.982,-1.026 0.864,0 1,0.182 0.504,0.911 m -5.494,3.139 c 0.062,-0.067 0.053,-0.056 0,0 m -0.083,0.09 c -0.032,0.034 -0.066,0.07 -0.103,0.11 0.041,-0.044 0.074,-0.079 0.103,-0.11 m 22.41,4.551 c 1.711,-2.061 3.762,-3.884 5.657,-5.777 0.989,-0.989 1.942,-2.047 2.984,-2.979 0.467,-0.417 2.231,-1.23 2.225,-0.034 -0.004,0.747 -1.998,2.179 -2.509,2.692 -0.96,0.965 -1.92,1.93 -2.881,2.894 C 27.494,1.706 24.435,5.897 23.064,4.26 23.032,4.247 22.978,4.185 22.892,4.033 m 2.77,0.603 c 0.09,-0.122 0.158,-0.207 0.21,-0.267 1.565,-2.031 3.696,-3.765 5.493,-5.575 0.871,-0.878 1.746,-1.753 2.619,-2.629 0.376,-0.378 0.83,-0.965 1.324,-1.189 0.2,-0.091 1.656,-0.345 1.828,-0.132 0.567,0.701 -4.586,5.176 -5.192,5.782 -1.109,1.109 -2.219,2.218 -3.33,3.326 -0.921,0.919 -1.871,1.905 -2.952,0.684 m 3.171,0.195 c 0.73,-1.168 1.983,-2.127 2.952,-3.096 1.114,-1.115 2.229,-2.228 3.344,-3.342 1.018,-1.017 2.003,-2.089 3.069,-3.055 0.445,-0.404 0.893,-0.709 1.508,-0.77 0.252,-0.026 0.542,-0.085 0.76,0.059 0.431,0.285 0.285,0.258 0.104,0.68 -0.224,0.524 -0.997,1.044 -1.396,1.444 -0.518,0.519 -1.035,1.037 -1.552,1.556 -1.035,1.036 -2.07,2.072 -3.106,3.108 -1.09,1.091 -2.153,2.22 -3.278,3.274 C 30.816,5.085 30.421,5.444 29.817,5.458 29.581,5.464 28.54,5.301 28.833,4.831 m 2.81,0.849 c 0.637,-1.193 1.643,-2.048 2.595,-3.006 1.157,-1.162 2.315,-2.323 3.474,-3.484 1.094,-1.096 2.188,-2.192 3.283,-3.288 0.474,-0.474 0.925,-1.041 1.558,-1.301 0.262,-0.108 1.435,-0.406 1.642,-0.112 0.558,0.793 -4.864,5.472 -5.537,6.144 -1.14,1.139 -2.28,2.278 -3.421,3.415 -0.471,0.47 -0.941,1.087 -1.505,1.445 C 33.08,5.907 32.421,5.734 31.643,5.68 M 34.91,5.464 c 1.873,-2.347 4.252,-4.385 6.377,-6.508 1.027,-1.026 2.054,-2.052 3.082,-3.077 0.429,-0.427 0.935,-1.144 1.497,-1.393 0.514,-0.228 1.267,-0.116 1.853,-0.116 0,1.132 -2.031,2.581 -2.804,3.369 -1.172,1.194 -2.357,2.375 -3.544,3.554 -1.138,1.131 -2.278,2.26 -3.411,3.396 -0.318,0.319 -0.635,0.639 -0.951,0.96 -0.454,0.459 -0.413,0.504 -1.067,0.515 -0.275,0.004 -1.466,-0.156 -1.032,-0.7 m 69.429,57.201 -3.225,-0.015 c -0.225,-10e-4 -0.432,0.103 -0.556,0.278 l -1.775,2.515 c -0.311,0.441 -1.028,0.339 -1.213,-0.172 L 96.512,62.353 C 96.439,62.15 96.266,61.992 96.05,61.93 L 92.939,61.045 C 92.395,60.89 92.259,60.213 92.709,59.9 l 2.572,-1.789 c 0.179,-0.124 0.279,-0.326 0.269,-0.539 l -0.099,-2.069 -2.237,-0.01 c -0.191,-0.001 -0.367,0.087 -0.472,0.236 l -1.508,2.136 c -0.264,0.373 -0.872,0.287 -1.029,-0.147 L 89.307,55.24 c -0.063,-0.172 -0.21,-0.306 -0.393,-0.358 L 86.273,54.13 c -0.462,-0.132 -0.578,-0.707 -0.196,-0.972 l 2.184,-1.519 c 0.152,-0.106 0.237,-0.277 0.229,-0.458 l -0.125,-2.6 c -0.021,-0.456 0.516,-0.724 0.909,-0.455 l 2.248,1.539 c 0.156,0.107 0.356,0.136 0.534,0.076 l 2.564,-0.855 c 0.449,-0.15 0.896,0.259 0.757,0.691 l -0.794,2.47 c -0.056,0.172 -0.018,0.361 0.101,0.505 l 1.117,1.354 c 0.206,-0.086 0.457,-0.08 0.673,0.068 l 2.647,1.813 c 0.184,0.126 0.419,0.159 0.629,0.089 l 3.02,-1.007 c 0.529,-0.176 1.056,0.305 0.892,0.814 l -0.936,2.909 c -0.065,0.202 -0.02,0.425 0.119,0.594 l 2.013,2.441 c 0.352,0.427 0.046,1.04 -0.519,1.038 M 80.99,78.616 77.749,78.601 C 77.524,78.6 77.315,78.704 77.191,78.88 l -1.784,2.527 c -0.312,0.443 -1.032,0.34 -1.218,-0.173 L 73.127,78.302 C 73.053,78.099 72.879,77.94 72.662,77.878 l -3.125,-0.89 c -0.547,-0.156 -0.684,-0.836 -0.232,-1.15 l 2.584,-1.797 c 0.18,-0.125 0.281,-0.328 0.271,-0.542 l -0.147,-3.077 c -0.026,-0.538 0.609,-0.856 1.075,-0.537 l 2.659,1.821 c 0.185,0.126 0.422,0.16 0.633,0.089 l 3.033,-1.011 c 0.531,-0.177 1.061,0.306 0.896,0.818 l -0.94,2.922 c -0.065,0.203 -0.02,0.426 0.12,0.597 l 2.022,2.452 c 0.354,0.429 0.046,1.045 -0.521,1.043 M 75.077,56.955 72.551,56.944 c -0.175,-0.001 -0.338,0.08 -0.435,0.217 l -1.39,1.97 c -0.244,0.345 -0.805,0.265 -0.95,-0.135 L 68.948,56.711 C 68.89,56.552 68.755,56.428 68.585,56.38 L 66.15,55.686 C 65.723,55.565 65.617,55.035 65.969,54.79 l 2.014,-1.401 c 0.089,-0.062 0.142,-0.152 0.175,-0.25 0.362,0.047 0.724,0.09 1.091,0.106 1.709,0.074 3.375,-0.218 4.977,-0.76 l -0.412,1.281 c -0.051,0.158 -0.016,0.332 0.093,0.465 l 1.577,1.911 c 0.275,0.335 0.035,0.815 -0.407,0.813 m -11.09,22.679 -2.628,-0.012 c -0.182,0 -0.352,0.084 -0.452,0.227 l -1.447,2.049 c -0.253,0.359 -0.837,0.276 -0.988,-0.141 L 57.611,79.38 C 57.551,79.215 57.41,79.086 57.233,79.036 L 54.7,78.314 c -0.444,-0.126 -0.555,-0.677 -0.188,-0.932 l 2.095,-1.458 c 0.146,-0.101 0.228,-0.265 0.22,-0.439 l -0.12,-2.495 c -0.021,-0.437 0.495,-0.694 0.872,-0.436 l 2.157,1.477 c 0.15,0.102 0.341,0.13 0.512,0.073 l 2.46,-0.821 c 0.431,-0.143 0.86,0.249 0.727,0.663 l -0.762,2.37 c -0.053,0.165 -0.017,0.346 0.097,0.484 l 1.64,1.989 c 0.287,0.348 0.037,0.847 -0.423,0.845 m -11.128,15.284 2.218,1.519 c 0.154,0.105 0.351,0.133 0.527,0.075 l 2.53,-0.844 c 0.443,-0.148 0.884,0.255 0.747,0.682 l -0.784,2.437 c -0.054,0.17 -0.017,0.356 0.1,0.498 l 1.687,2.045 c 0.295,0.358 0.038,0.872 -0.435,0.87 l -2.703,-0.013 c -0.187,-10e-4 -0.361,0.086 -0.465,0.233 l -1.488,2.107 c -0.26,0.369 -0.861,0.284 -1.016,-0.144 l -0.886,-2.445 c -0.061,-0.17 -0.206,-0.302 -0.388,-0.354 l -2.605,-0.742 c -0.457,-0.13 -0.571,-0.697 -0.194,-0.959 l 2.155,-1.499 c 0.15,-0.104 0.234,-0.273 0.226,-0.451 l -0.123,-2.566 c -0.021,-0.45 0.509,-0.715 0.897,-0.449 M 48.771,57.257 46.264,57.246 c -0.174,-0.001 -0.335,0.08 -0.431,0.216 l -1.381,1.955 c -0.241,0.342 -0.798,0.263 -0.942,-0.134 l -0.679,-1.872 c 1.093,-1.542 1.887,-3.258 2.225,-5.142 0.017,-0.091 0.031,-0.187 0.046,-0.279 0.034,-0.005 0.069,0.002 0.102,-0.009 l 2.348,-0.783 c 0.41,-0.137 0.82,0.237 0.693,0.633 l -0.728,2.261 c -0.05,0.157 -0.016,0.329 0.093,0.461 l 1.565,1.897 c 0.273,0.332 0.035,0.809 -0.404,0.807 m -6.54,1.486 2.041,1.397 c 0.142,0.098 0.323,0.123 0.485,0.069 l 2.328,-0.776 c 0.408,-0.136 0.814,0.235 0.688,0.628 l -0.722,2.242 c -0.05,0.156 -0.015,0.327 0.092,0.458 l 1.552,1.882 c 0.272,0.329 0.035,0.802 -0.4,0.8 l -2.487,-0.011 c -0.172,-0.001 -0.333,0.079 -0.428,0.214 l -1.369,1.939 c -0.24,0.34 -0.792,0.261 -0.935,-0.133 l -0.815,-2.249 c -0.057,-0.157 -0.19,-0.279 -0.357,-0.326 l -2.398,-0.683 c -0.42,-0.12 -0.524,-0.641 -0.177,-0.883 l 1.982,-1.379 c 0.138,-0.096 0.216,-0.251 0.208,-0.415 l -0.113,-2.36 c 0.149,-0.16 0.29,-0.324 0.433,-0.488 0.13,-0.021 0.267,-0.012 0.392,0.074 M 38.47,88.509 40.54,87.07 c 0.143,-0.1 0.224,-0.262 0.216,-0.434 l -0.118,-2.464 c -0.02,-0.431 0.489,-0.685 0.862,-0.43 l 2.129,1.458 c 0.148,0.101 0.337,0.128 0.506,0.072 l 2.43,-0.81 c 0.425,-0.142 0.849,0.245 0.717,0.655 l -0.753,2.34 c -0.052,0.163 -0.016,0.342 0.097,0.478 l 1.619,1.963 c 0.283,0.344 0.037,0.838 -0.418,0.836 l -2.595,-0.012 c -0.18,-10e-4 -0.347,0.083 -0.446,0.223 l -1.429,2.024 c -0.25,0.354 -0.827,0.272 -0.976,-0.139 L 41.53,90.483 C 41.471,90.32 41.332,90.192 41.158,90.143 L 38.656,89.43 C 38.218,89.305 38.108,88.761 38.47,88.509 m 14.943,19.935 2.045,-1.423 c 0.142,-0.098 0.223,-0.259 0.214,-0.428 l -0.116,-2.436 c -0.02,-0.426 0.483,-0.678 0.851,-0.425 l 2.105,1.441 c 0.147,0.1 0.334,0.127 0.501,0.071 l 2.401,-0.801 c 0.42,-0.14 0.84,0.243 0.709,0.648 l -0.744,2.313 c -0.052,0.161 -0.016,0.338 0.095,0.473 l 1.601,1.94 c 0.28,0.34 0.036,0.828 -0.413,0.826 l -2.565,-0.012 c -0.178,0 -0.344,0.082 -0.442,0.221 l -1.412,2 c -0.247,0.351 -0.817,0.27 -0.964,-0.137 l -0.841,-2.32 c -0.059,-0.161 -0.196,-0.287 -0.368,-0.336 l -2.474,-0.705 c -0.433,-0.123 -0.541,-0.661 -0.183,-0.91 m 13.058,-17.447 2.697,-1.875 c 0.187,-0.131 0.293,-0.342 0.282,-0.565 l -0.153,-3.211 c -0.027,-0.563 0.636,-0.894 1.122,-0.561 l 2.775,1.9 c 0.193,0.132 0.439,0.167 0.66,0.094 l 3.166,-1.056 c 0.554,-0.185 1.106,0.319 0.935,0.853 l -0.982,3.05 c -0.068,0.212 -0.021,0.445 0.126,0.623 l 2.11,2.559 c 0.369,0.448 0.048,1.091 -0.544,1.088 l -3.382,-0.015 c -0.235,-0.001 -0.453,0.108 -0.582,0.291 l -1.862,2.637 c -0.326,0.462 -1.077,0.355 -1.271,-0.18 l -1.109,-3.06 C 70.382,93.356 70.2,93.191 69.974,93.126 l -3.261,-0.929 c -0.571,-0.162 -0.714,-0.871 -0.242,-1.2 M 36.705,68.36 34.328,68.349 c -0.165,0 -0.318,0.076 -0.409,0.205 l -1.308,1.853 c -0.229,0.325 -0.757,0.25 -0.894,-0.127 l -0.779,-2.15 c -0.054,-0.149 -0.182,-0.266 -0.341,-0.311 l -2.292,-0.653 c -0.187,-0.053 -0.301,-0.193 -0.344,-0.347 2.385,-0.89 4.764,-1.793 7.027,-2.952 0.409,-0.209 0.815,-0.435 1.218,-0.668 -0.001,0.006 0.002,0.011 0,0.017 l -0.69,2.143 c -0.048,0.149 -0.015,0.313 0.088,0.438 l 1.484,1.798 c 0.259,0.315 0.033,0.767 -0.383,0.765 m 97.818,-21.95 c 2.608,-11.938 3.401,-24.302 2.541,-36.334 -0.302,-4.219 -0.812,-8.422 -1.537,-12.589 -0.848,1.58 -2.258,2.677 -4.101,2.43 0.503,-1.088 1.489,-1.887 2.343,-2.72 0.31,-0.304 1.275,-0.897 1.427,-1.268 0.104,-0.254 -0.145,-1.008 -0.211,-1.34 0.196,0.677 -1.245,1.646 -1.676,2.079 -0.687,0.691 -1.376,1.38 -2.064,2.07 -0.399,0.398 -3.089,3.124 -3.566,1.465 -0.198,-0.691 3.023,-3.295 3.508,-3.778 0.587,-0.584 3.125,-3.917 3.794,-1.853 -1.952,-9.811 -5.111,-19.405 -9.583,-28.361 -1.04,-2.082 -2.151,-4.129 -3.335,-6.133 -0.305,-0.517 -0.475,-1.009 -0.986,-1.175 -0.5,-0.163 -1.394,0.027 -1.942,0.038 -1.48,0.03 -2.96,0.06 -4.44,0.089 -5.638,0.109 -11.274,0.205 -16.913,0.098 -5.423,-0.103 -10.863,-0.251 -16.274,-0.637 -0.844,-0.06 -2.951,-0.53 -3.52,0.281 -0.555,0.789 0.342,2.08 -0.572,2.706 -0.668,0.459 -2.467,0.104 -3.218,0.088 -1.476,-0.032 -2.952,-0.061 -4.427,-0.109 -5.434,-0.176 -10.782,-0.09 -16.21,0.128 -0.751,0.031 -2.044,0.362 -2.371,-0.516 -0.139,-0.373 0.125,-0.885 0.114,-1.276 -0.024,-0.902 -0.431,-1.051 -1.292,-1.16 -2.62,-0.335 -5.423,-0.108 -8.066,-0.146 -6.211,-0.091 -12.422,-0.155 -18.634,-0.192 -3.084,-0.017 -6.169,-0.032 -9.253,-0.046 -1.047,-0.004 -1.106,0.457 -1.619,1.312 -0.354,0.591 -0.702,1.186 -1.043,1.784 -0.777,1.362 -1.521,2.742 -2.233,4.139 1.939,0 3.807,0.259 5.659,0.839 0.823,0.257 1.635,0.567 2.372,1.02 0.739,0.454 1.374,0.824 0.984,-0.448 -0.162,-0.528 -0.838,-1.799 0.231,-1.87 0.884,-0.059 0.987,1.097 1.263,1.662 0.357,0.731 0.513,0.843 1.241,0.705 1.128,-0.214 2.216,-0.828 3.357,-1.068 0.688,-0.145 4.982,-0.135 4.323,1.33 -0.315,0.698 -1.357,0.341 -1.862,0.224 -1.149,-0.268 -2.154,-0.19 -3.297,0.123 -0.668,0.183 -1.933,0.437 -1.612,1.297 0.179,0.479 1.164,0.858 1.567,1.091 0.881,0.508 1.755,1.033 2.644,1.526 0.381,0.211 0.756,0.429 1.167,0.578 0.428,0.154 1.187,0.092 1.539,0.342 0.503,0.357 0.355,1.054 -0.059,1.397 -0.68,0.564 -1.464,-0.046 -2.098,-0.373 -0.701,-0.363 -4.745,-3.155 -5.31,-2.425 -0.284,0.367 0.326,1.75 0.188,2.218 -0.264,0.893 -0.965,0.748 -1.472,0.149 -1.152,-1.361 -1.476,-3.246 -2.782,-4.539 -1.017,-1.008 -2.472,-1.715 -3.909,-1.835 -1.032,-0.085 -1.266,0.213 -0.897,1.191 0.348,0.924 0.927,1.803 1.386,2.675 0.323,0.613 1.446,2.054 1.312,2.769 -0.187,0.992 -1.056,0.553 -1.458,0.014 -1.118,-1.497 -2.001,-3.577 -2.727,-5.286 -0.448,-1.053 -0.446,-1.723 -1.709,-1.831 -0.725,-0.062 -0.574,-0.062 -0.998,0.454 -0.303,0.368 -0.467,0.976 -0.672,1.416 -0.519,1.114 -1.018,2.238 -1.498,3.37 -0.147,0.347 -0.623,1.098 -0.61,1.471 0.017,0.511 0.675,1.395 0.902,1.862 0.31,0.64 2.919,4.977 1.59,5.264 -1.175,0.254 -2.769,-4.423 -3.201,-5.331 -2.817,7.305 -4.856,14.906 -6.159,22.624 0.656,-0.743 1.396,-1.69 2.223,-2.244 0.526,-0.354 2.307,-0.893 2.039,0.089 -0.246,0.9 -1.612,1.856 -2.263,2.47 -0.518,0.49 -1.613,1.911 -2.156,0.659 -0.431,2.686 -0.488,3.2 -0.414,2.861 -2.717,19.754 -0.865,40.308 5.929,59.073 3.252,-4.014 8.06,-7.082 12.841,-8.889 2.736,-1.034 5.56,-1.678 8.259,-2.84 2.139,-0.921 4.706,-1.911 6.129,-3.869 1.544,-2.124 1.838,-4.94 2.545,-7.397 0.658,-2.284 1.486,-4.471 3.116,-6.245 0.968,-1.055 0.587,-1.491 0.223,-2.831 -0.385,-1.418 -0.544,-2.883 -0.575,-4.35 -0.043,-2.056 -0.058,-4.214 0.412,-6.229 0.527,-2.26 1.614,-4.365 2.302,-6.576 0.468,-1.499 0.848,-3.025 1.202,-4.555 0.178,-0.769 0.493,-1.195 -0.316,-1.28 -0.761,-0.08 -1.321,0.438 -2.133,0.115 0.175,-1.238 2.22,-2.591 3.054,-3.425 1.204,-1.204 2.408,-2.407 3.612,-3.611 1.204,-1.203 2.404,-2.41 3.612,-3.609 0.987,-0.98 1.958,-1.869 3.266,-0.923 -0.925,1.035 -1.931,1.997 -2.908,2.981 -0.478,0.48 -0.965,0.95 -1.443,1.429 -0.215,0.216 -1.628,1.38 -0.936,1.545 0.711,0.169 2.6,-2.248 3.094,-2.738 1.042,-1.036 2.03,-2.224 3.16,-3.162 0.52,-0.433 2.838,-1.37 2.302,0.043 -0.179,0.472 -0.987,1.031 -1.345,1.391 -0.634,0.637 -1.288,1.26 -1.9,1.918 -0.553,0.594 -1.153,1.752 0.032,0.819 1.269,-0.999 2.414,-2.321 3.558,-3.46 0.729,-0.727 1.432,-1.683 2.484,-1.778 2.149,-0.193 0.049,1.647 -0.544,2.246 -0.284,0.288 -2.578,2.292 -1.801,2.489 0.6,0.152 2.63,-2.394 3.113,-2.869 0.755,-0.743 1.584,-2.035 2.785,-1.602 0.64,0.231 0.682,0.425 0.275,0.965 -0.414,0.55 -1.023,1.04 -1.502,1.534 -0.249,0.257 -1.078,0.834 -1.049,1.221 0.045,0.591 0.541,0.079 0.772,-0.106 1.144,-0.912 2.099,-2.094 3.167,-3.092 0.541,-0.506 1.077,-0.901 1.852,-0.882 0.874,0.021 0.945,0.213 0.47,0.914 -0.328,0.482 -2.792,2.313 -2.625,2.882 0.203,0.695 2.674,-1.917 2.96,-2.206 1.02,-1.029 2.289,-2.515 3.761,-1.448 -0.276,0.338 -3.368,3.397 -3.064,3.593 0.66,0.424 3.31,-2.795 3.838,-3.297 0.538,-0.509 0.996,-0.929 1.782,-0.951 1.371,-0.037 0.771,0.634 0.161,1.288 -0.606,0.649 -1.338,1.287 -1.87,1.999 -0.904,1.213 -0.076,0.902 0.649,0.254 1.251,-1.119 2.357,-2.863 3.84,-3.653 0.319,-0.17 1.479,-0.54 1.791,-0.173 0.383,0.451 -1.056,1.729 -1.348,2.011 -0.46,0.442 -0.956,0.852 -1.371,1.34 -0.661,0.778 -0.309,1.05 0.458,0.436 1.352,-1.083 2.769,-3.53 4.466,-3.947 1,-0.246 1.549,-0.043 0.998,0.845 -0.408,0.658 -1.14,1.232 -1.662,1.802 -0.182,0.199 -1.752,1.73 -0.679,1.487 0.609,-0.137 1.82,-1.727 2.255,-2.151 0.535,-0.52 2.861,-3.408 3.884,-2.146 0.658,0.812 -2.622,2.916 -3.001,3.723 -0.571,1.216 0.697,0.138 1.093,-0.221 0.643,-0.584 1.247,-1.214 1.864,-1.827 0.654,-0.65 1.319,-1.601 2.322,-1.651 1.461,-0.072 0.858,0.774 0.255,1.454 -0.544,0.612 -1.162,1.152 -1.718,1.752 -0.86,0.928 -0.302,1.099 0.541,0.382 1.182,-1.006 2.539,-3.382 4.174,-3.573 0.938,-0.109 1.272,0.239 0.764,1.043 -0.669,1.057 -1.999,1.69 -2.691,2.737 -0.447,0.676 -0.237,0.923 0.473,0.416 0.961,-0.686 1.788,-1.765 2.63,-2.595 0.616,-0.608 1.247,-1.5 2.164,-1.613 1.096,-0.135 1.343,0.284 0.692,1.072 -1.358,1.642 -3.037,2.977 -4.442,4.574 0.841,0.865 2.617,-1.659 3.186,-2.237 0.954,-0.968 2.279,-2.917 3.587,-3.267 0.518,-0.139 1.4,-0.115 1.395,0.461 -0.005,0.483 -1.043,1.228 -1.308,1.495 -0.653,0.657 -2.746,2.14 -2.29,3.1 1.061,-0.846 1.993,-1.834 2.94,-2.802 0.727,-0.744 1.809,-2.328 2.981,-2.122 1.613,0.283 -0.042,1.626 -0.659,2.233 -0.432,0.424 -0.88,0.832 -1.287,1.281 -0.479,0.529 -0.769,1.063 0.077,0.739 1.063,-0.407 2.115,-1.98 2.914,-2.774 0.435,-0.432 0.895,-1.041 1.516,-1.203 0.409,-0.107 1.404,-0.088 1.367,0.525 -0.023,0.397 -0.982,1.174 -1.241,1.45 -0.492,0.523 -0.997,1.035 -1.493,1.555 -0.24,0.252 -0.916,0.776 -0.266,0.9 0.35,0.066 1.595,-1.362 1.879,-1.638 0.879,-0.855 1.913,-2.426 3.13,-2.714 2.536,-0.599 0.424,1.524 -0.292,2.256 -0.318,0.326 -2.452,2.184 -2.141,2.604 0.35,0.474 2.64,-2.126 3.034,-2.527 0.878,-0.891 1.89,-2.299 3.16,-2.352 1.896,-0.078 0.201,1.343 -0.396,1.956 -0.936,0.961 -1.983,1.877 -2.857,2.891 -0.183,0.213 -0.83,0.98 -0.14,0.951 0.419,-0.017 1.415,-1.3 1.685,-1.565 1.149,-1.131 2.287,-2.272 3.452,-3.386 0.487,-0.465 0.819,-0.886 1.547,-0.855 0.702,0.029 1.005,0.179 0.776,0.878 -0.451,1.372 -6.8,5.386 -5.752,6.644 1.544,-1.444 3.032,-2.943 4.528,-4.438 0.88,-0.879 2.466,-3.207 3.885,-2.928 1.001,0.196 0.745,0.672 0.16,1.296 -0.66,0.703 -1.366,1.365 -2.047,2.049 -1.383,1.388 -2.95,2.71 -4.158,4.256 0.667,0.474 1.234,-0.373 1.737,-0.871 0.708,-0.701 1.401,-1.419 2.108,-2.121 0.786,-0.781 1.569,-1.565 2.353,-2.347 0.738,-0.735 1.586,-2.003 2.719,-2.064 2.425,-0.13 -0.946,2.69 -1.443,3.188 -0.778,0.78 -1.557,1.558 -2.335,2.337 -0.861,0.86 -2.034,1.727 -2.725,2.725 -0.665,0.96 -0.175,1.05 0.764,1.557 0.95,0.512 1.919,0.99 2.878,1.484 1.709,0.882 3.634,1.635 4.978,3.045 1.339,1.404 2.442,2.95 3.23,4.723 0.279,0.626 1.095,1.611 1.195,2.256 0.121,0.776 -0.648,1.889 -0.982,2.519 -0.885,1.669 -1.701,3.394 -2.638,5.033 -0.456,0.797 -0.964,1.565 -1.54,2.281 -0.559,0.695 -1.557,1.387 -1.604,2.347 -0.034,0.696 0.434,1.393 0.725,1.982 0.448,0.907 0.883,1.822 1.351,2.719 0.196,0.376 0.343,0.725 0.647,1.027 0.235,0.234 0.658,0.363 0.837,0.644 0.558,0.877 -0.905,1.084 -1.587,1.141 -1.585,0.131 -3.176,-1.225 -4.698,-1.722 -0.507,-0.165 -0.802,-0.433 -1.109,0.083 -0.179,0.301 -0.044,0.726 -0.002,1.037 0.04,0.299 0.226,0.755 0.087,1.055 -0.282,0.608 -1.02,-0.025 -1.533,-0.282 -1.876,-0.937 -3.672,-2.065 -5.488,-3.111 -1.698,-0.978 -3.327,-2.053 -5.283,-2.429 -1.701,-0.327 -3.318,-0.347 -4.624,0.908 -1.33,1.279 -2.537,2.642 -3.945,3.849 -2.998,2.572 -5.416,5.682 -8.386,8.262 -2.819,2.449 -6.464,4.512 -9.985,5.734 -3.748,1.302 -7.754,1.604 -11.626,0.787 -4.185,-0.883 -7.828,-2.886 -11.615,-4.79 -0.913,-0.459 -1.824,-0.928 -2.759,-1.342 -1.021,-0.451 -1.511,-0.62 -2.284,0.28 -1.38,1.606 -1.896,3.749 -2.769,5.631 -3.193,6.883 -8.356,13.136 -16.022,14.954 -3.577,0.848 -7.608,1.76 -10.791,3.681 -3.229,1.95 -3.625,6.959 -3.081,10.29 0.141,0.864 0.35,1.794 0.388,2.666 0.023,0.53 -0.163,1.035 -0.16,1.551 0.003,0.687 -0.014,0.671 0.386,1.276 0.787,1.188 1.61,2.351 2.452,3.501 0,-0.009 0.006,-0.016 0.005,-0.024 l -0.108,-2.257 c -0.018,-0.395 0.448,-0.628 0.789,-0.395 l 1.95,1.336 c 0.136,0.093 0.309,0.117 0.464,0.066 l 2.225,-0.742 c 0.39,-0.13 0.778,0.224 0.657,0.6 l -0.689,2.143 c -0.048,0.149 -0.015,0.313 0.088,0.438 l 1.483,1.798 c 0.26,0.315 0.033,0.767 -0.383,0.765 L 21.244,89.83 c -0.165,-0.001 -0.318,0.076 -0.409,0.205 l -0.299,0.423 c 1.4,1.674 2.857,3.299 4.388,4.854 8.472,8.598 19.106,15.181 30.935,17.767 l 0.338,-0.113 c 0.298,-0.099 0.593,0.077 0.676,0.332 0.737,0.146 1.477,0.281 2.223,0.395 11.032,1.689 22.331,-0.258 32.299,-5.22 6.329,-3.151 12.034,-7.402 17.061,-12.354 l -3.318,-0.015 c -0.39,-0.002 -0.752,0.179 -0.967,0.484 l -3.094,4.382 c -0.542,0.767 -1.791,0.59 -2.113,-0.3 L 97.121,95.586 C 96.993,95.232 96.692,94.957 96.315,94.85 l -5.419,-1.544 c -0.949,-0.27 -1.186,-1.449 -0.401,-1.994 l 4.48,-3.117 c 0.312,-0.217 0.487,-0.568 0.47,-0.939 L 95.19,81.92 c -0.001,-0.021 0.006,-0.04 0.006,-0.06 l -2.548,-0.012 c -0.284,-0.001 -0.547,0.13 -0.703,0.352 l -2.248,3.183 c -0.394,0.558 -1.301,0.429 -1.535,-0.218 L 86.823,81.472 C 86.73,81.215 86.511,81.015 86.237,80.937 l -3.936,-1.121 c -0.69,-0.197 -0.862,-1.053 -0.292,-1.449 l 3.255,-2.265 c 0.227,-0.157 0.354,-0.412 0.341,-0.682 L 85.42,71.544 c -0.033,-0.679 0.768,-1.079 1.355,-0.678 l 3.35,2.294 c 0.233,0.16 0.531,0.202 0.797,0.114 l 3.822,-1.275 c 0.669,-0.223 1.336,0.386 1.129,1.03 l -1.185,3.682 c -0.082,0.256 -0.026,0.538 0.152,0.752 l 2.547,3.089 c 0.196,0.238 0.224,0.518 0.141,0.76 l 4.138,2.833 c 0.321,0.22 0.731,0.278 1.097,0.156 l 5.261,-1.754 c 0.921,-0.308 1.839,0.531 1.554,1.418 l -1.631,5.068 c -0.113,0.353 -0.035,0.74 0.209,1.035 l 2.833,3.436 c 1.943,-2.1 3.774,-4.304 5.485,-6.587 5.952,-7.938 10.555,-16.773 13.912,-26.092 l -0.235,-0.001 c -0.237,-10e-4 -0.455,0.108 -0.586,0.293 l -1.872,2.651 c -0.327,0.464 -1.083,0.357 -1.278,-0.182 L 125.3,60.51 c -0.077,-0.214 -0.26,-0.38 -0.488,-0.445 l -3.279,-0.934 c -0.574,-0.163 -0.717,-0.877 -0.243,-1.207 l 2.712,-1.886 c 0.188,-0.131 0.294,-0.343 0.284,-0.568 l -0.155,-3.228 c -0.027,-0.566 0.64,-0.899 1.129,-0.565 l 2.79,1.911 c 0.194,0.133 0.442,0.168 0.663,0.094 l 3.184,-1.061 c 0.435,-0.145 0.865,0.134 0.951,0.519 0.057,-0.201 0.112,-0.401 0.168,-0.602 l -1.867,-0.532 c -0.453,-0.129 -0.567,-0.693 -0.192,-0.954 l 2.143,-1.49 c 0.149,-0.103 0.233,-0.271 0.224,-0.448 l -0.122,-2.552 c -0.021,-0.446 0.506,-0.71 0.892,-0.445 l 0.429,0.293 z M 94.274,0.288 c 0.061,-0.141 0.072,0.136 0,0 M 38.828,47.479 c 0.062,-0.027 0.143,0.059 0,0 m 37.025,-72.672 c 0.395,-10e-4 0.725,0.188 0.846,0.579 -0.942,0.347 -1.066,-0.578 -0.846,-0.579 m -1.888,49.348 c 0,10e-4 0,10e-4 0,10e-4 l 0,0 c 0,-10e-4 0,0 0,-10e-4 M 46.443,-29.492 c 0.071,0.069 0.091,0.088 0,0 M 36.22,56.476 c -1.581,-0.902 -3.163,-1.804 -4.744,-2.706 -0.917,-0.523 -1.837,-1.042 -2.751,-1.57 -0.61,-0.352 -1.577,-1.41 -0.12,-1.48 0.474,-0.023 0.975,0.431 1.426,0.712 1.013,0.63 2.025,1.26 3.038,1.89 0.967,0.602 1.935,1.203 2.902,1.805 0.686,0.427 1.487,0.702 0.249,1.349 M 67.786,-22.63 c 1.515,0.43 2.968,1.199 4.248,2.11 1.405,0.998 0.696,1.8 -0.604,2.341 -0.64,0.266 -1.299,0.515 -2,0.539 -0.967,0.034 -1.024,-0.409 -1.33,-1.239 -0.165,-0.448 -1.76,-4.161 -0.314,-3.751 m -21.375,-6.893 c 0.012,0.012 0.021,0.021 0.032,0.031 -0.009,-0.009 -0.021,-0.02 -0.032,-0.031 m 46.567,-0.059 c 0,0 0,0 0,0 l 0.001,0 c 0,0 0,0 -0.001,0 m 18.898,7.187 c 0,0.001 -0.001,0.001 -0.001,0.001 0.001,-0.001 0.002,-0.002 0.003,-0.002 0,0 -0.001,0.001 -0.002,0.001 m -2.07,-1.276 c -0.016,-0.009 -0.039,-0.022 -0.068,-0.038 0.027,0.015 0.05,0.028 0.068,0.038 m -0.387,-0.217 c -0.055,-0.031 -0.045,-0.025 0,0 m -4.995,30.708 0,0 0,0 c 0,0 0,0 0,0 m 2.888,3.343 c 0,0 0,10e-4 0,10e-4 0,0 0,0 0,-10e-4 0,0 0,0 0,0 m -6.611,-31.631 c 0,0 0,0 0,0 0,0 0,0 0,0 z m 16.271,22.03 c 0.017,-0.017 0.034,-0.034 0.051,-0.051 -0.024,0.024 -0.041,0.041 -0.051,0.051 z M 58.19,-44.759 c 0.681,0.393 0.831,4.509 -0.261,4.52 -1.415,0.015 -1.237,-5.384 0.261,-4.52 m 2.89,4.528 c 0.394,0.02 -0.222,-0.011 0,0 m -6.381,0.25 c 0.411,-0.073 -0.386,0.07 0,0 m 5.373,-2.778 c -0.045,-0.802 -0.29,-2.011 0.741,-2.223 1.839,-0.378 1.471,4.81 0.267,4.751 -1.135,-0.055 -0.96,-1.669 -1.008,-2.528 m -2.143,2.52 c 0.328,-0.003 -0.275,0.003 0,0 m -5.213,-1.25 c -0.058,-0.678 -0.053,-1.362 -0.021,-2.041 0.045,-0.925 0.084,-1.293 1.123,-1.404 1.436,-0.154 1.687,0.66 1.787,1.919 0.07,0.889 0.311,2.816 -0.906,3.034 -1.385,0.249 -1.864,-0.12 -1.983,-1.508 m 22.197,1.623 c 0.085,-0.005 0.207,-0.013 0.385,-0.025 -0.137,0.009 -0.28,0.018 -0.385,0.025 m 0.467,-0.031 c -0.027,0.002 -0.054,0.004 -0.082,0.006 0.023,-0.002 0.056,-0.004 0.082,-0.006 m 0,0 c 0.074,-0.005 0.151,-0.01 0.242,-0.016 -0.053,0.004 -0.14,0.01 -0.242,0.016 m -3.46,-0.024 c -0.951,-0.051 -2.593,0.172 -3.06,-0.767 -0.493,-0.993 -0.784,-4.082 0.448,-4.476 0.884,-0.282 2.22,-0.037 3.14,-0.047 0.859,-0.009 2.538,-0.364 3.343,-0.025 0.89,0.375 1.063,5.242 -0.138,5.321 0.024,-10e-4 0.03,-0.002 0,0 -0.012,10e-4 -0.02,0.002 -0.031,0.002 0.012,0 0.023,-0.001 0.031,-0.002 -1.243,0.083 -2.49,0.06 -3.733,-0.006 m -6.057,-5.146 c 1.066,0.136 1.103,0.592 1.22,1.593 0.073,0.629 0.447,2.962 -0.386,3.198 -0.746,0.211 -2.721,0.473 -3.234,-0.327 -0.444,-0.691 -0.228,-2.709 0.003,-3.46 0.352,-1.142 1.356,-1.136 2.397,-1.004 m 68.136,3.581 c -2.261,0.487 -4.773,0.254 -7.077,0.286 -1.163,0.017 -2.326,0.034 -3.488,0.056 -0.467,0.009 -1.098,0.136 -1.56,0.031 -0.439,0.158 -0.708,0.006 -0.808,-0.458 -0.194,-0.31 -0.388,-0.619 -0.584,-0.927 2.795,-0.05 5.589,-0.103 8.384,-0.153 1.225,-0.022 2.421,-0.283 3.618,-0.33 0.446,-0.018 1.305,0.101 1.604,0.496 0.169,0.224 0.35,0.904 -0.089,0.999 m -59.134,1.624 c -0.149,0.009 -0.117,0.007 0,0 m 0,0 c 0.014,-10e-4 0.032,-0.003 0.048,-0.004 -0.017,10e-4 -0.034,0.003 -0.048,0.004 m -68.31,-1.923 c -0.742,-0.003 -5.068,0.488 -5.107,-0.836 -0.034,-1.118 4.79,-0.616 5.527,-0.611 2.391,0.016 4.782,0.032 7.173,0.047 -0.307,0.474 -0.607,0.952 -0.905,1.431 -2.229,-0.01 -4.459,-0.02 -6.688,-0.031 m 106.948,-0.605 c -0.009,0 -0.019,10e-4 -0.029,10e-4 0.009,0 0.02,-10e-4 0.029,-10e-4 m -0.029,10e-4 c -0.1,0.001 -0.19,0.002 -0.279,0.003 0.094,-10e-4 0.188,-0.002 0.279,-0.003 m -21.36,-0.065 c -3.578,-0.091 -7.138,-0.332 -10.71,-0.53 -0.939,-0.052 -3.019,0.312 -3.348,-0.907 -0.319,-1.182 0.802,-2.536 -0.831,-2.893 -1.57,-0.344 -3.554,0.029 -5.153,0.068 -1.83,0.045 -3.661,0.063 -5.492,0.083 -3.626,0.04 -7.252,0.073 -10.877,0.168 -0.996,0.026 -3.45,-0.339 -4.229,0.358 -1.367,1.223 0.699,3.059 -1.935,3.139 -3.49,0.107 -6.999,-0.008 -10.49,-0.036 -8.3,-0.066 -16.601,-0.127 -24.901,-0.181 9.259,-14.316 22.883,-26.487 39.681,-30.823 16.204,-4.183 33.115,-0.155 46.525,9.597 8.078,5.874 14.791,13.501 20.128,21.913 -2.212,0.039 -4.424,0.077 -6.636,0.104 -7.249,0.088 -14.484,0.124 -21.732,-0.06 m 43.413,39.941 c -0.091,-0.522 -0.185,-1.044 -0.282,-1.565 0.851,-0.277 0.415,1.316 0.282,1.565 m -22.541,-39.87 c 0.07,-10e-4 0.139,-0.002 0.209,-0.003 -0.072,0.001 -0.144,0.002 -0.209,0.003 M 33.96,58.132 c -0.669,0.023 -1.356,-0.655 -1.894,-0.999 -1.093,-0.699 -2.186,-1.398 -3.278,-2.096 l -2.933,-1.876 c -0.144,-0.091 -0.634,-0.293 -0.709,-0.453 -0.192,-0.411 0.407,-0.894 0.868,-0.87 0.461,0.024 1.18,0.639 1.578,0.867 1.123,0.64 2.246,1.281 3.369,1.922 1.024,0.584 2.048,1.168 3.072,1.752 0.199,0.113 0.599,0.247 0.747,0.426 0.495,0.599 -0.085,1.302 -0.82,1.327 m 78.165,-100.505 c 0.084,-0.001 0.228,-0.003 0.447,-0.005 -0.19,0.002 -0.351,0.004 -0.447,0.005 m 1.78,-0.022 c -0.021,0.001 -0.036,0.001 -0.059,0.001 -0.02,0 -0.036,10e-4 -0.056,10e-4 0.04,-10e-4 0.078,-10e-4 0.115,-0.002 m 0.174,-0.002 c -0.051,10e-4 -0.11,0.002 -0.174,0.002 0.068,0 0.126,-10e-4 0.174,-0.002 m -1.164,0.014 c 0.024,0 0.046,0 0.071,0 -0.024,0 -0.047,0 -0.071,0 m 1.164,-0.014 c 0.057,0 0.101,-0.001 0.133,-0.001 -0.034,0 -0.078,0.001 -0.133,0.001 m -1.507,0.019 c 0.107,-0.002 0.223,-0.003 0.343,-0.005 -0.13,0.002 -0.245,0.004 -0.343,0.005 m 1.64,-0.02 c 0.088,-10e-4 0.078,-10e-4 0,0 m -2.087,0.025 c -0.12,0.002 -0.138,0.002 0,0 m 1.378,-0.017 c 0.092,-10e-4 0.186,-0.002 0.287,-0.003 -0.089,10e-4 -0.185,0.002 -0.287,0.003 M 5.436,64.951 C 5.159,64.269 4.998,64.213 5.329,63.594 5.531,63.217 5.954,62.804 6.236,62.485 6.869,61.77 7.56,61.106 8.272,60.47 c -0.267,0.239 -0.409,0.366 10e-4,-10e-4 0.323,-0.288 0.52,-0.464 0.64,-0.571 -0.166,0.148 -0.435,0.388 -0.638,0.57 1.3,-1.161 2.646,-2.284 4.114,-3.228 0.801,-0.514 1.635,-0.978 2.505,-1.365 0.594,-0.264 1.435,-0.856 2.068,-0.943 0.934,-0.129 2.108,0.995 2.911,1.497 l 7.74,4.839 c -1.975,1.076 -4,-0.909 -5.594,-1.909 -1.05,-0.658 -2.1,-1.317 -3.15,-1.975 -0.424,-0.266 -1.079,-0.884 -1.58,-0.99 -1.129,-0.24 -0.658,0.737 -0.101,1.117 0.855,0.583 1.76,1.103 2.636,1.653 1.039,0.651 2.078,1.303 3.117,1.954 0.331,0.207 1.32,0.623 1.306,0.971 -0.034,0.832 -1.748,0.337 -2.171,0.1 -0.446,-0.25 -0.955,-0.809 -1.446,-0.934 -0.726,-0.186 -0.973,0.308 -0.532,0.846 0.294,0.359 0.952,0.616 1.343,0.868 -0.113,0.59 -1.728,0.838 -2.187,1.019 -0.888,0.351 -1.728,0.827 -2.552,1.306 -1.545,0.897 -2.385,1.949 -2.99,3.63 -0.656,1.821 -1.136,3.734 -1.046,5.683 0.089,1.934 0.765,3.734 0.536,5.686 C 11.174,77.023 9.346,73.631 7.709,70.149 6.905,68.437 6.147,66.703 5.436,64.951 m -1.138,0.245 c -0.684,1.296 -1.021,2.665 -1.095,4.124 -0.155,3.063 0.251,6.091 0.841,9.08 0.483,2.444 1.764,4.733 4.289,5.497 1.042,0.315 2.203,0.309 3.198,-0.165 1.478,-0.705 1.496,-1.938 1.671,-3.439 0.738,1.19 1.292,1.821 0.415,3.021 C 12.883,84.319 11.809,85 10.556,85.158 7.959,85.485 5.36,83.859 4.149,81.624 2.831,79.193 2.501,76.059 1.863,73.398 1.162,70.475 0.878,66.46 2.247,63.676 c -0.021,0.043 -0.042,0.085 -0.061,0.125 0.018,-0.037 0.036,-0.075 0.061,-0.125 0.006,-0.012 0.009,-0.018 0.014,-0.029 -0.005,0.01 -0.009,0.019 -0.014,0.029 0.465,-0.945 1.006,-1.859 1.67,-2.679 0.292,0.806 0.743,1.659 0.937,2.493 0.183,0.785 -0.146,0.928 -0.556,1.706 m -1.99,-1.644 c 0.004,-0.009 0.009,-0.019 0.013,-0.027 -0.004,0.008 -0.009,0.018 -0.013,0.027 m 0.013,-0.027 c 0.089,-0.18 0.061,-0.124 0,0 m -0.135,0.276 c -0.138,0.279 -0.086,0.174 0,0 m 5.452,-96.874 c -0.708,-0.015 -1.416,-0.03 -2.124,-0.044 -0.83,-0.016 -2.987,-0.527 -2.972,0.648 0.013,1.11 1.258,2.778 1.724,3.741 0.301,0.624 0.706,1.264 0.929,1.919 0.277,0.814 -0.159,1.45 -0.477,2.274 C 3.862,-26.334 3,-28.131 2.101,-29.909 1.693,-30.718 1.277,-31.523 0.85,-32.321 c -0.339,-0.634 -1.074,-1.521 -1.129,-2.258 -0.056,-0.757 0.44,-0.832 1.071,-0.659 0.881,0.242 1.591,0.53 2.533,0.591 1.939,0.126 3.897,0.13 5.839,0.131 -0.157,0.308 -0.286,0.691 -0.488,0.972 -0.424,0.587 -0.333,0.486 -1.038,0.471 m 1.275,92.971 c 0.161,-0.144 0.213,-0.19 0,0 M 2.261,63.647 C 2.278,63.614 2.293,63.582 2.308,63.552 2.295,63.579 2.279,63.611 2.261,63.647 M 31.643,5.68 c 0.253,-0.474 0.736,0.051 0,0 m -2.287,55.231 c -0.116,-0.029 -0.182,-0.053 -0.226,-0.073 -1.583,-0.485 -3.139,-1.763 -4.525,-2.63 -1.603,-1.001 -3.412,-1.893 -4.896,-3.06 -0.915,-0.721 -0.207,-1.496 0.778,-1.138 0.425,0.154 0.85,0.514 1.235,0.746 1.818,1.1 3.636,2.2 5.455,3.3 0.899,0.544 1.799,1.089 2.698,1.633 1.033,0.624 0.666,0.655 -0.519,1.222 m 2.341,-1.289 c -1.716,-1.038 -3.431,-2.076 -5.147,-3.114 -1.038,-0.627 -2.076,-1.255 -3.113,-1.883 -0.191,-0.115 -0.401,-0.22 -0.581,-0.351 -0.056,-0.041 -0.7,-0.551 -0.692,-0.631 0.029,-0.294 0.835,-0.687 1.087,-0.703 0.577,-0.039 1.001,0.384 1.499,0.702 1.111,0.711 2.223,1.422 3.335,2.133 1.646,1.053 3.293,2.105 4.939,3.158 -0.332,0.407 -0.754,0.793 -1.327,0.689 M -1.598,-0.937 c 0.051,-0.325 0.104,-0.649 0.157,-0.974 -0.252,0.285 -0.307,0.628 -0.157,0.974" />
          </g>
        </g>
      </g>
    </g>
  </g>
</svg>
