<?xml version="1.0" encoding="UTF-8" standalone="no"?>
<!-- Created with Inkscape (http://www.inkscape.org/) -->

<svg
   xmlns:pcbmode="pcbmode"
   xmlns:dc="http://purl.org/dc/elements/1.1/"
   xmlns:cc="http://creativecommons.org/ns#"
   xmlns:rdf="http://www.w3.org/1999/02/22-rdf-syntax-ns#"
   xmlns:svg="http://www.w3.org/2000/svg"
   xmlns="http://www.w3.org/2000/svg"
   xmlns:sodipodi="http://sodipodi.sourceforge.net/DTD/sodipodi-0.dtd"
   xmlns:inkscape="http://www.inkscape.org/namespaces/inkscape"
   width="210mm"
   height="297mm"
   viewBox="0 0 744.09448819 1052.3622047"
   id="svg10250"
   version="1.1"
   inkscape:version="0.91 r13725"
   sodipodi:docname="shapes.svg">
  <defs
     id="defs10252" />
  <sodipodi:namedview
     id="base"
     pagecolor="#ffffff"
     bordercolor="#666666"
     borderopacity="1.0"
     inkscape:pageopacity="0.0"
     inkscape:pageshadow="2"
     inkscape:zoom="1.4"
     inkscape:cx="379.55653"
     inkscape:cy="819.40926"
     inkscape:document-units="mm"
     inkscape:current-layer="layer1"
     showgrid="false"
     inkscape:window-width="1885"
     inkscape:window-height="1056"
     inkscape:window-x="35"
     inkscape:window-y="24"
     inkscape:window-maximized="1" />
  <metadata
     id="metadata10255">
    <rdf:RDF>
      <cc:Work
         rdf:about="">
        <dc:format>image/svg+xml</dc:format>
        <dc:type
           rdf:resource="http://purl.org/dc/dcmitype/StillImage" />
        <dc:title></dc:title>
      </cc:Work>
    </rdf:RDF>
  </metadata>
  <g
     inkscape:label="Layer 1"
     inkscape:groupmode="layer"
     id="layer1">
    <g
       transform="matrix(3.5433071,0,0,3.5433071,269.67012,504.85953)"
       style="fill:none;stroke:#555555;stroke-opacity:1"
       pcbmode:type="module-shapes"
       id="g4736">
      <path
         d="m -42.257778,0 0,-17 c 0,-1.656854 1.343146,-3 3,-3 L 0,-20 l 37,0 c 1.656854,0 3,1.343146 3,3 l 0,17 0,17 c 0,1.656854 -1.343146,3 -3,3 l -37,0 -39.257778,0 c -1.656854,0 -2.945018,-1.344059 -3,-3 z"
         style="fill:none;stroke-width:0.05"
         pcbmode:style="stroke"
         id="path4738"
         inkscape:connector-curvature="0"
         sodipodi:nodetypes="csscsscsscssc" />
    </g>
    <g
       id="g10847"
       pcbmode:type="module-shapes"
       style="fill:none;stroke:#555555;stroke-opacity:1"
       transform="matrix(3.5433071,0,0,3.5433071,226.67012,489.36461)">
      <path
         sodipodi:nodetypes="ccccccccc"
         inkscape:connector-curvature="0"
         id="path10849"
         pcbmode:style="stroke"
         style="fill:none;stroke-width:0.05"
         d="m 25.475555,-17 c 0,-1.656854 1.343146,-3 3,-3 L 37,-20 c 1.656854,0 3,1.343146 3,3 l 0,2.955556 c 0,1.656854 -1.343146,3 -3,3 l -8.524445,0 c -1.656854,0 -2.945018,-1.344059 -3,-3 z" />
    </g>
    <g
       transform="matrix(3.5433071,0,0,3.5433071,226.67012,630.37477)"
       style="fill:none;stroke:#555555;stroke-opacity:1"
       pcbmode:type="module-shapes"
       id="g10851">
      <path
         d="m 25.475555,-17 c 0,-1.656854 1.343146,-3 3,-3 L 37,-20 c 1.656854,0 3,1.343146 3,3 l 0,2.955556 c 0,1.656854 -1.343146,3 -3,3 l -8.524445,0 c -1.656854,0 -2.945018,-1.344059 -3,-3 z"
         style="fill:none;stroke-width:0.05"
         pcbmode:style="stroke"
         id="path10853"
         inkscape:connector-curvature="0"
         sodipodi:nodetypes="ccccccccc" />
    </g>
    <g
       transform="matrix(3.5433071,0,0,3.5433071,72.67012,489.36461)"
       style="fill:none;stroke:#555555;stroke-opacity:1"
       pcbmode:type="module-shapes"
       id="g10855">
      <path
         d="m 25.475555,-17 c 0,-1.656854 1.343146,-3 3,-3 L 37,-20 c 1.656854,0 3,1.343146 3,3 l 0,2.955556 c 0,1.656854 -1.343146,3 -3,3 l -8.524445,0 c -1.656854,0 -2.945018,-1.344059 -3,-3 z"
         style="fill:none;stroke-width:0.05"
         pcbmode:style="stroke"
         id="path10857"
         inkscape:connector-curvature="0"
         sodipodi:nodetypes="ccccccccc" />
    </g>
    <g
       id="g10859"
       pcbmode:type="module-shapes"
       style="fill:none;stroke:#555555;stroke-opacity:1"
       transform="matrix(3.5433071,0,0,3.5433071,72.67012,630.37477)">
      <path
         sodipodi:nodetypes="ccccccccc"
         inkscape:connector-curvature="0"
         id="path10861"
         pcbmode:style="stroke"
         style="fill:none;stroke-width:0.05"
         d="m 25.475555,-17 c 0,-1.656854 1.343146,-3 3,-3 L 37,-20 c 1.656854,0 3,1.343146 3,3 l 0,2.955556 c 0,1.656854 -1.343146,3 -3,3 l -8.524445,0 c -1.656854,0 -2.945018,-1.344059 -3,-3 z" />
    </g>
    <g
       transform="matrix(0,3.5433071,-3.5433071,0,64.67012,388.85953)"
       style="fill:none;stroke:#555555;stroke-opacity:1"
       pcbmode:type="module-shapes"
       id="g10863">
      <path
         d="m 25.475555,-17 c 0,-1.656854 1.343146,-3 3,-3 L 37,-20 c 1.656854,0 3,1.343146 3,3 l 0,2.955556 c 0,1.656854 -1.343146,3 -3,3 l -8.524445,0 c -1.656854,0 -2.945018,-1.344059 -3,-3 z"
         style="fill:none;stroke-width:0.05"
         pcbmode:style="stroke"
         id="path10865"
         inkscape:connector-curvature="0"
         sodipodi:nodetypes="ccccccccc" />
    </g>
    <g
       id="g10867"
       pcbmode:type="module-shapes"
       style="fill:none;stroke:#555555;stroke-opacity:1"
       transform="matrix(3.5433071,0,0,3.5433071,573.67012,504.85953)">
      <path
         sodipodi:nodetypes="ccccccccc"
         inkscape:connector-curvature="0"
         id="path10869"
         pcbmode:style="stroke"
         style="fill:none;stroke-width:0.05"
         d="m -42.257778,-17 c 0,-1.656854 1.343146,-3 3,-3 25.419259,0 -11.25037,0 14.168889,0 1.656854,0 3,1.343146 3,3 0,11.3333333 0,22.6666667 0,34 0,1.656854 -1.343146,3 -3,3 -25.419259,0 11.25037,0 -14.168889,0 -1.656854,0 -2.945018,-1.344059 -3,-3 0,-11.3333333 0,-22.6666667 0,-34 z" />
    </g>
    <g
       id="g10879"
       pcbmode:type="module-shapes"
       style="fill:none;stroke:#555555;stroke-opacity:1"
       transform="matrix(0,3.5433071,-3.5433071,0,403.68028,328.23075)">
      <path
         sodipodi:nodetypes="ccccccccc"
         inkscape:connector-curvature="0"
         id="path10881"
         pcbmode:style="stroke"
         style="fill:none;stroke-width:0.05"
         d="m 25.475555,-17 c 0,-1.656854 1.343146,-3 3,-3 L 37,-20 c 1.656854,0 3,1.343146 3,3 l 0,2.955556 c 0,1.656854 -1.343146,3 -3,3 l -8.524445,0 c -1.656854,0 -2.945018,-1.344059 -3,-3 z" />
    </g>
    <g
       transform="matrix(0,3.5433071,-3.5433071,0,403.68028,449.50863)"
       style="fill:none;stroke:#555555;stroke-opacity:1"
       pcbmode:type="module-shapes"
       id="g10883">
      <path
         d="m 25.475555,-17 c 0,-1.656854 1.343146,-3 3,-3 L 37,-20 c 1.656854,0 3,1.343146 3,3 l 0,2.955556 c 0,1.656854 -1.343146,3 -3,3 l -8.524445,0 c -1.656854,0 -2.945018,-1.344059 -3,-3 z"
         style="fill:none;stroke-width:0.05"
         pcbmode:style="stroke"
         id="path10885"
         inkscape:connector-curvature="0"
         sodipodi:nodetypes="ccccccccc" />
    </g>
    <g
       id="g10887"
       pcbmode:type="module-shapes"
       style="fill:none;stroke:#555555;stroke-opacity:1"
       transform="matrix(3.5433071,0,0,3.5433071,379.67012,587.85953)">
      <path
         sodipodi:nodetypes="ccccccccc"
         inkscape:connector-curvature="0"
         id="path10889"
         pcbmode:style="stroke"
         style="fill:none;stroke-width:0.05"
         d="m 25.475555,-17 c 0,-1.656854 1.343146,-3 3,-3 L 37,-20 c 1.656854,0 3,1.343146 3,3 l 0,2.955556 c 0,1.656854 -1.343146,3 -3,3 l -8.524445,0 c -1.656854,0 -2.945018,-1.344059 -3,-3 z" />
    </g>
    <g
       transform="matrix(3.5433071,0,0,3.5433071,379.67012,531.85953)"
       style="fill:none;stroke:#555555;stroke-opacity:1"
       pcbmode:type="module-shapes"
       id="g10891">
      <path
         d="m 25.475555,-17 c 0,-1.656854 1.343146,-3 3,-3 L 37,-20 c 1.656854,0 3,1.343146 3,3 l 0,2.955556 c 0,1.656854 -1.343146,3 -3,3 l -8.524445,0 c -1.656854,0 -2.945018,-1.344059 -3,-3 z"
         style="fill:none;stroke-width:0.05"
         pcbmode:style="stroke"
         id="path10893"
         inkscape:connector-curvature="0"
         sodipodi:nodetypes="ccccccccc" />
    </g>
    <path
       style="fill:none;stroke:#555555;stroke-width:0.17716536;stroke-opacity:1"
       d="m 173.56836,198.49805 c -5.87075,0 -10.63086,4.76012 -10.63086,10.63086 l 0,4.86523 -32.36914,0 c -5.87075,0 -10.63086,4.75817 -10.63086,10.62891 l 0,34.5039 -5.50391,0 c -5.86751,0.19482 -10.6289,4.76011 -10.6289,10.63086 l 0,30.20313 c 0,5.87075 4.75816,10.63086 10.6289,10.63086 l 5.50391,0 0,34.5039 c 0.19481,5.86751 4.76011,10.63086 10.63086,10.63086 l 32.36914,0 0,4.88477 c 0.19482,5.86751 4.76011,10.6289 10.63086,10.6289 l 30.20508,0 c 5.87075,0 10.6289,-4.75816 10.6289,-10.6289 l 0,-4.88477 55.26758,0 47.26758,0 0,4.88477 c 0.19482,5.86751 4.76011,10.6289 10.63086,10.6289 l 30.20508,0 c 5.87075,0 10.6289,-4.75816 10.6289,-10.6289 l 0,-4.88477 32.3711,0 c 5.87075,0 10.6289,-4.76012 10.6289,-10.63086 l 0,-60.23632 0,-60.23633 c 0,-5.87074 -4.75815,-10.62891 -10.6289,-10.62891 l -32.3711,0 0,-4.86523 c 0,-5.87074 -4.75815,-10.63086 -10.6289,-10.63086 l -30.20508,0 c -5.87075,0 -10.63086,4.76012 -10.63086,10.63086 l 0,4.86523 -47.26758,0 -55.26758,0 0,-4.86523 c 0,-5.87074 -4.75815,-10.63086 -10.6289,-10.63086 l -30.20508,0 z m 279.875,0 c -5.86751,0.19482 -10.62891,4.76011 -10.62891,10.63086 l 0,4.86523 -8.24609,0 c -5.87075,0 -10.63086,4.75817 -10.63086,10.62891 l 0,120.47265 c 0.19481,5.86751 4.76011,10.63086 10.63086,10.63086 l 8.24609,0 0,4.88477 c 0,5.87075 4.75817,10.6289 10.62891,10.6289 l 10.47266,0 c 5.87074,0 10.63086,-4.75815 10.63086,-10.6289 l 0,-4.88477 10.22656,0 c 5.87074,0 10.6289,-4.76012 10.6289,-10.63086 l 0,-16.36914 15.3711,0 c 5.87075,0 10.6289,-4.76012 10.6289,-10.63086 l 0,-10.47265 c 0,-5.87074 -4.75815,-10.62891 -10.6289,-10.62891 l -15.3711,0 0,-24.26758 15.3711,0 c 5.87075,0 10.6289,-4.76012 10.6289,-10.63086 l 0,-10.47265 c 0,-5.87074 -4.75815,-10.62891 -10.6289,-10.62891 l -15.3711,0 0,-16.37109 c 0,-5.87074 -4.75816,-10.62891 -10.6289,-10.62891 l -10.22656,0 0,-4.86523 c -10e-6,-5.87075 -4.76012,-10.63086 -10.63086,-10.63086 l -10.47266,0 z"
       id="path10961"
       inkscape:connector-curvature="0" />
    <path
       inkscape:connector-curvature="0"
       id="path15751"
       pcbmode:style="stroke"
       style="fill:none;stroke:#555555;stroke-width:0.17716536;stroke-opacity:1"
       d="m 240.4945,94.832139 c -1.62136,0 -2.936,1.31199 -2.936,2.9301 l 0,1.34097 -8.93961,0 c -1.62136,0 -2.936,1.311451 -2.936,2.929561 l 0,9.51005 -1.52005,0 c -1.62047,0.0537 -2.93546,1.312 -2.93546,2.93011 l 0,8.32466 c 0,1.61811 1.3141,2.9301 2.93546,2.9301 l 1.52005,0 0,9.51006 c 0.0538,1.61721 1.31464,2.9301 2.936,2.9301 l 8.93961,0 0,1.34635 c 0.0538,1.61722 1.31464,2.92957 2.936,2.92957 l 8.34195,0 c 1.62136,0 2.93545,-1.31146 2.93545,-2.92957 l 0,-1.34635 15.26364,0 13.05421,0 0,1.34635 c 0.0538,1.61722 1.31463,2.92957 2.936,2.92957 l 8.34194,0 c 1.62137,0 2.93546,-1.31146 2.93546,-2.92957 l 0,-1.34635 8.94015,0 c 1.62137,0 2.93546,-1.31199 2.93546,-2.9301 l 0,-16.60249 0,-16.60249 c 0,-1.61811 -1.31409,-2.929561 -2.93546,-2.929561 l -8.94015,0 0,-1.34097 c 0,-1.61811 -1.31409,-2.9301 -2.93546,-2.9301 l -8.34194,0 c -1.62137,0 -2.936,1.31199 -2.936,2.9301 l 0,1.34097 -13.05421,0 -15.26364,0 0,-1.34097 c 0,-1.61811 -1.31409,-2.9301 -2.93545,-2.9301 l -8.34195,0 z m 77.29502,0 c -1.62048,0.0537 -2.93546,1.31199 -2.93546,2.9301 l 0,1.34097 -2.27738,0 c -1.62137,0 -2.936,1.311451 -2.936,2.929561 l 0,33.20498 c 0.0538,1.61721 1.31463,2.9301 2.936,2.9301 l 2.27738,0 0,1.34635 c 0,1.61811 1.3141,2.92957 2.93546,2.92957 l 2.8923,0 c 1.62137,0 2.936,-1.31146 2.936,-2.92957 l 0,-1.34635 2.82434,0 c 1.62137,0 2.93546,-1.31199 2.93546,-2.9301 l 0,-4.51171 4.24514,0 c 1.62137,0 2.93546,-1.31199 2.93546,-2.9301 l 0,-2.8865 c 0,-1.61811 -1.31409,-2.92957 -2.93546,-2.92957 l -4.24514,0 0,-6.68869 4.24514,0 c 1.62137,0 2.93546,-1.31199 2.93546,-2.9301 l 0,-2.8865 c 0,-1.61811 -1.31409,-2.92957 -2.93546,-2.92957 l -4.24514,0 0,-4.51224 c 0,-1.61811 -1.3141,-2.929561 -2.93546,-2.929561 l -2.82434,0 0,-1.34097 c 0,-1.61811 -1.31463,-2.9301 -2.936,-2.9301 l -2.8923,0 z" />
    <g
       style="fill:#ff7373;fill-opacity:0.6;stroke:#ff7373;stroke-opacity:0.6"
       transform="matrix(3.5433071,0,0,3.5433068,504.4936,103.7544)"
       pcbmode:type="component-shapes"
       id="g49514">
      <path
         inkscape:connector-curvature="0"
         d="M 0,0.975 C 0.53847763,0.975 0.975,0.53847763 0.975,0 0.975,-0.53847763 0.53847763,-0.975 0,-0.975 c -0.53847763,0 -0.975,0.43652237 -0.975,0.975 0,0.53847763 0.43652237,0.975 0.975,0.975 z"
         style="stroke:none"
         pcbmode:style="fill"
         transform="translate(-1.27,0)"
         id="path49516" />
      <path
         inkscape:connector-curvature="0"
         d="m -0.975,0 0,-0.675 c 0,-0.165685 0.134315,-0.3 0.3,-0.3 l 0.675,0 0.675,0 c 0.165685,0 0.3,0.134315 0.3,0.3 l 0,0.675 0,0.675 c 0,0.165685 -0.134315,0.3 -0.3,0.3 l -0.675,0 -0.675,0 c -0.165685,0 -0.3,-0.134315 -0.3,-0.3 l 0,-0.675 z"
         style="stroke:none"
         pcbmode:style="fill"
         transform="translate(1.27,0)"
         id="path49518" />
    </g>
    <g
       style="fill:#ff7373;fill-opacity:0.6;stroke:#ff7373;stroke-opacity:0.6"
       transform="matrix(3.5433071,0,0,3.5433068,442.59375,104.66917)"
       pcbmode:type="component-shapes"
       id="g49520">
      <path
         inkscape:connector-curvature="0"
         d="M 0,0.975 C 0.53847763,0.975 0.975,0.53847763 0.975,0 0.975,-0.53847763 0.53847763,-0.975 0,-0.975 c -0.53847763,0 -0.975,0.43652237 -0.975,0.975 0,0.53847763 0.43652237,0.975 0.975,0.975 z"
         style="stroke:none"
         pcbmode:style="fill"
         transform="translate(-1.27,0)"
         id="path49522" />
      <path
         inkscape:connector-curvature="0"
         d="m -0.975,0 0,-0.675 c 0,-0.165685 0.134315,-0.3 0.3,-0.3 l 0.675,0 0.675,0 c 0.165685,0 0.3,0.134315 0.3,0.3 l 0,0.675 0,0.675 c 0,0.165685 -0.134315,0.3 -0.3,0.3 l -0.675,0 -0.675,0 c -0.165685,0 -0.3,-0.134315 -0.3,-0.3 l 0,-0.675 z"
         style="stroke:none"
         pcbmode:style="fill"
         transform="translate(1.27,0)"
         id="path49524" />
    </g>
    <g
       style="fill:#a60000;fill-opacity:0.6;stroke:none;stroke-opacity:0.6"
       transform="matrix(3.5433071,0,0,3.5433068,504.4936,103.7544)"
       pcbmode:type="component"
       pcbmode:refdef="D2"
       id="g49784">
      <g
         style="font-style:normal;font-variant:normal;font-weight:bold;font-stretch:normal;font-size:0.1px;line-height:100%;font-family:'Sans serif';text-align:center;letter-spacing:0;word-spacing:0;writing-mode:lr-tb;text-anchor:middle;fill:#f3ff00;fill-opacity:1;stroke:none"
         id="g49786">
        <text
           x="-1.27"
           y="-0"
           id="text49788">1-LED</text>
        <text
           x="1.27"
           y="-0"
           id="text49790">2-LED</text>
      </g>
      <path
         inkscape:connector-curvature="0"
         d="M 0,0.95 C 0.52467051,0.95 0.95,0.52467051 0.95,0 0.95,-0.52467051 0.52467051,-0.95 0,-0.95 c -0.52467051,0 -0.95,0.42532949 -0.95,0.95 0,0.52467051 0.42532949,0.95 0.95,0.95 z"
         style="fill-opacity:0.6;stroke:none"
         pcbmode:style="fill"
         transform="translate(-1.27,0)"
         id="path49792" />
      <path
         inkscape:connector-curvature="0"
         d="m -0.95,0 0,-0.65 c 0,-0.165685 0.134315,-0.3 0.3,-0.3 l 0.65,0 0.65,0 c 0.165685,0 0.3,0.134315 0.3,0.3 l 0,0.65 0,0.65 c 0,0.165685 -0.134315,0.3 -0.3,0.3 l -0.65,0 -0.65,0 c -0.165685,0 -0.3,-0.134315 -0.3,-0.3 l 0,-0.65 z"
         style="fill-opacity:0.6;stroke:none"
         pcbmode:style="fill"
         transform="translate(1.27,0)"
         id="path49794" />
    </g>
    <g
       style="fill:#a60000;fill-opacity:0.6;stroke:none;stroke-opacity:0.6"
       transform="matrix(3.5433071,0,0,3.5433068,442.59375,104.66917)"
       pcbmode:type="component"
       pcbmode:refdef="D1"
       id="g49796">
      <g
         style="font-style:normal;font-variant:normal;font-weight:bold;font-stretch:normal;font-size:0.1px;line-height:100%;font-family:'Sans serif';text-align:center;letter-spacing:0;word-spacing:0;writing-mode:lr-tb;text-anchor:middle;fill:#f3ff00;fill-opacity:1;stroke:none"
         id="g49798">
        <text
           x="-1.27"
           y="-0"
           id="text49800">1-LED</text>
        <text
           x="1.27"
           y="-0"
           id="text49802">2-LED</text>
      </g>
      <path
         inkscape:connector-curvature="0"
         d="M 0,0.95 C 0.52467051,0.95 0.95,0.52467051 0.95,0 0.95,-0.52467051 0.52467051,-0.95 0,-0.95 c -0.52467051,0 -0.95,0.42532949 -0.95,0.95 0,0.52467051 0.42532949,0.95 0.95,0.95 z"
         style="fill-opacity:0.6;stroke:none"
         pcbmode:style="fill"
         transform="translate(-1.27,0)"
         id="path49804" />
      <path
         inkscape:connector-curvature="0"
         d="m -0.95,0 0,-0.65 c 0,-0.165685 0.134315,-0.3 0.3,-0.3 l 0.65,0 0.65,0 c 0.165685,0 0.3,0.134315 0.3,0.3 l 0,0.65 0,0.65 c 0,0.165685 -0.134315,0.3 -0.3,0.3 l -0.65,0 -0.65,0 c -0.165685,0 -0.3,-0.134315 -0.3,-0.3 l 0,-0.65 z"
         style="fill-opacity:0.6;stroke:none"
         pcbmode:style="fill"
         transform="translate(1.27,0)"
         id="path49806" />
    </g>
    <g
       id="g50598"
       style="font-style:normal;font-variant:normal;font-weight:bold;font-stretch:normal;font-size:0.1px;line-height:100%;font-family:'Sans serif';text-align:center;letter-spacing:0;word-spacing:0;writing-mode:lr-tb;text-anchor:middle;fill:#f3ff00;fill-opacity:1;stroke:none;stroke-opacity:0.6"
       transform="matrix(0.38948967,-3.5218352,3.5218348,0.38948963,442.5462,90.410477)">
      <text
         id="text50600"
         y="4.3099999"
         x="2.6391138e-16">2TH</text>
      <text
         id="text50602"
         y="-4.3099999"
         x="-2.6391138e-16">1TH</text>
    </g>
    <path
       id="path50604"
       pcbmode:style="fill"
       style="fill:#008500;fill-opacity:0.6;stroke:none;stroke-opacity:0.6"
       d="m 461.64241,103.23979 c 1.84782,0.20435 3.51141,-1.12792 3.71577,-2.97573 0.20435,-1.847813 -1.12793,-3.511413 -2.97573,-3.715763 -1.84781,-0.20435 -3.51141,1.12792 -3.71576,2.97573 -0.20436,1.847813 1.12792,3.511413 2.97572,3.715763 z"
       inkscape:connector-curvature="0" />
    <path
       id="path50606"
       pcbmode:style="fill"
       style="fill:#008500;fill-opacity:0.6;stroke:none;stroke-opacity:0.6"
       d="m 422.49985,98.149987 c 1.84781,0.20435 3.51141,-1.12792 3.71576,-2.97573 0.20436,-1.84781 -1.12792,-3.51141 -2.97572,-3.71576 -1.84782,-0.20435 -3.51141,1.12792 -3.71577,2.97573 -0.20435,1.84781 1.12793,3.51141 2.97573,3.71576 z"
       inkscape:connector-curvature="0" />
    <path
       id="path51130"
       pcbmode:style="fill"
       style="fill:#008500;fill-opacity:0.6;stroke:none;stroke-opacity:0.6"
       d="m 528.7976,133.52372 c 0,-3.91383 -3.1728,-7.08661 -7.0866,-7.08661 -3.9138,0 -7.0866,3.17278 -7.0866,7.08661 0,3.91383 3.1728,7.08661 7.0866,7.08661 3.9138,0 7.0866,-3.17278 7.0866,-7.08661 z"
       inkscape:connector-curvature="0" />
    <path
       id="path51132"
       pcbmode:style="fill"
       style="fill:#008500;fill-opacity:0.6;stroke:none;stroke-opacity:0.6"
       d="m 480.7331,133.62968 c 0,-3.9138 -3.1727,-7.0866 -7.08652,-7.0866 -3.91383,0 -7.08661,3.1728 -7.08661,7.0866 0,3.91383 3.17278,7.08661 7.08661,7.08661 3.91382,0 7.08652,-3.17278 7.08652,-7.08661 z"
       inkscape:connector-curvature="0" />
    <path
       id="path51134"
       pcbmode:style="fill"
       style="fill:#008500;fill-opacity:0.6;stroke:none;stroke-opacity:0.6"
       d="m 433.93146,133.52372 c 0,-3.91383 -3.17278,-7.08661 -7.08661,-7.08661 -3.91383,0 -7.08661,3.17278 -7.08661,7.08661 0,3.91383 3.17278,7.08661 7.08661,7.08661 3.91383,0 7.08661,-3.17278 7.08661,-7.08661 z"
       inkscape:connector-curvature="0" />
    <g
       style="fill:#008500;fill-opacity:0.6;stroke:none;stroke-opacity:0.6"
       transform="matrix(3.5433071,0,0,3.5433068,504.4936,103.7544)"
       pcbmode:type="component"
       pcbmode:refdef="D2"
       id="g51308">
      <g
         style="font-style:normal;font-variant:normal;font-weight:bold;font-stretch:normal;font-size:0.1px;line-height:100%;font-family:'Sans serif';text-align:center;letter-spacing:0;word-spacing:0;writing-mode:lr-tb;text-anchor:middle;fill:#f3ff00;fill-opacity:1;stroke:none"
         id="g51310">
        <text
           x="-1.27"
           y="-0"
           id="text51312">1-LED</text>
        <text
           x="1.27"
           y="-0"
           id="text51314">2-LED</text>
      </g>
      <path
         inkscape:connector-curvature="0"
         d="M 0,0.95 C 0.52467051,0.95 0.95,0.52467051 0.95,0 0.95,-0.52467051 0.52467051,-0.95 0,-0.95 c -0.52467051,0 -0.95,0.42532949 -0.95,0.95 0,0.52467051 0.42532949,0.95 0.95,0.95 z"
         style="fill-opacity:0.6;stroke:none"
         pcbmode:style="fill"
         transform="translate(-1.27,0)"
         id="path51316" />
      <path
         inkscape:connector-curvature="0"
         d="m -0.95,0 0,-0.65 c 0,-0.165685 0.134315,-0.3 0.3,-0.3 l 0.65,0 0.65,0 c 0.165685,0 0.3,0.134315 0.3,0.3 l 0,0.65 0,0.65 c 0,0.165685 -0.134315,0.3 -0.3,0.3 l -0.65,0 -0.65,0 c -0.165685,0 -0.3,-0.134315 -0.3,-0.3 l 0,-0.65 z"
         style="fill-opacity:0.6;stroke:none"
         pcbmode:style="fill"
         transform="translate(1.27,0)"
         id="path51318" />
    </g>
    <g
       style="fill:#008500;fill-opacity:0.6;stroke:none;stroke-opacity:0.6"
       transform="matrix(3.5433071,0,0,3.5433068,442.59375,104.66917)"
       pcbmode:type="component"
       pcbmode:refdef="D1"
       id="g51344">
      <g
         style="font-style:normal;font-variant:normal;font-weight:bold;font-stretch:normal;font-size:0.1px;line-height:100%;font-family:'Sans serif';text-align:center;letter-spacing:0;word-spacing:0;writing-mode:lr-tb;text-anchor:middle;fill:#f3ff00;fill-opacity:1;stroke:none"
         id="g51346">
        <text
           x="-1.27"
           y="-0"
           id="text51348">1-LED</text>
        <text
           x="1.27"
           y="-0"
           id="text51350">2-LED</text>
      </g>
      <path
         inkscape:connector-curvature="0"
         d="M 0,0.95 C 0.52467051,0.95 0.95,0.52467051 0.95,0 0.95,-0.52467051 0.52467051,-0.95 0,-0.95 c -0.52467051,0 -0.95,0.42532949 -0.95,0.95 0,0.52467051 0.42532949,0.95 0.95,0.95 z"
         style="fill-opacity:0.6;stroke:none"
         pcbmode:style="fill"
         transform="translate(-1.27,0)"
         id="path51352" />
      <path
         inkscape:connector-curvature="0"
         d="m -0.95,0 0,-0.65 c 0,-0.165685 0.134315,-0.3 0.3,-0.3 l 0.65,0 0.65,0 c 0.165685,0 0.3,0.134315 0.3,0.3 l 0,0.65 0,0.65 c 0,0.165685 -0.134315,0.3 -0.3,0.3 l -0.65,0 -0.65,0 c -0.165685,0 -0.3,-0.134315 -0.3,-0.3 l 0,-0.65 z"
         style="fill-opacity:0.6;stroke:none"
         pcbmode:style="fill"
         transform="translate(1.27,0)"
         id="path51354" />
    </g>
    <g
       style="fill:#67e667;fill-opacity:0.6;stroke:#67e667;stroke-opacity:0.6"
       transform="matrix(3.5433071,0,0,3.5433068,504.4936,103.7544)"
       pcbmode:type="component-shapes"
       id="g51994">
      <path
         inkscape:connector-curvature="0"
         d="M 0,0.975 C 0.53847763,0.975 0.975,0.53847763 0.975,0 0.975,-0.53847763 0.53847763,-0.975 0,-0.975 c -0.53847763,0 -0.975,0.43652237 -0.975,0.975 0,0.53847763 0.43652237,0.975 0.975,0.975 z"
         style="stroke:none"
         pcbmode:style="fill"
         transform="translate(-1.27,0)"
         id="path51996" />
      <path
         inkscape:connector-curvature="0"
         d="m -0.975,0 0,-0.675 c 0,-0.165685 0.134315,-0.3 0.3,-0.3 l 0.675,0 0.675,0 c 0.165685,0 0.3,0.134315 0.3,0.3 l 0,0.675 0,0.675 c 0,0.165685 -0.134315,0.3 -0.3,0.3 l -0.675,0 -0.675,0 c -0.165685,0 -0.3,-0.134315 -0.3,-0.3 l 0,-0.675 z"
         style="stroke:none"
         pcbmode:style="fill"
         transform="translate(1.27,0)"
         id="path51998" />
    </g>
    <g
       style="fill:#67e667;fill-opacity:0.6;stroke:#67e667;stroke-opacity:0.6"
       transform="matrix(3.5433071,0,0,3.5433068,442.59375,104.66917)"
       pcbmode:type="component-shapes"
       id="g52012">
      <path
         inkscape:connector-curvature="0"
         d="M 0,0.975 C 0.53847763,0.975 0.975,0.53847763 0.975,0 0.975,-0.53847763 0.53847763,-0.975 0,-0.975 c -0.53847763,0 -0.975,0.43652237 -0.975,0.975 0,0.53847763 0.43652237,0.975 0.975,0.975 z"
         style="stroke:none"
         pcbmode:style="fill"
         transform="translate(-1.27,0)"
         id="path52014" />
      <path
         inkscape:connector-curvature="0"
         d="m -0.975,0 0,-0.675 c 0,-0.165685 0.134315,-0.3 0.3,-0.3 l 0.675,0 0.675,0 c 0.165685,0 0.3,0.134315 0.3,0.3 l 0,0.675 0,0.675 c 0,0.165685 -0.134315,0.3 -0.3,0.3 l -0.675,0 -0.675,0 c -0.165685,0 -0.3,-0.134315 -0.3,-0.3 l 0,-0.675 z"
         style="stroke:none"
         pcbmode:style="fill"
         transform="translate(1.27,0)"
         id="path52016" />
    </g>
    <g
       style="fill:#9fee00;fill-opacity:0.6;stroke:#9fee00;stroke-opacity:0.6"
       transform="matrix(3.5433071,0,0,3.5433068,442.59376,104.66916)"
       pcbmode:type="refdef"
       pcbmode:refdef="D1"
       id="g52440">
      <path
         inkscape:connector-curvature="0"
         d="m -0.574463,0.390374 0,-0.78012695 q 0.0818848,-0.0196777 0.1625,-0.0196777 0.0780762,0 0.14472656,0.0222168 0.0666504,0.0222168 0.11552735,0.0714111 0.0488769,0.0491943 0.07680664,0.12727051 0.02792968,0.0780762 0.02792968,0.1885253906255 0,0.1117187493745 -0.02792968,0.1897949193745 -0.02792969,0.0780762 -0.07680664,0.12695313 -0.048877,0.0488769 -0.11584473,0.0707764 -0.0669678,0.0218994 -0.14440918,0.0218994 -0.0806152,6.3476e-4 -0.1625,-0.019043 z m 0.10664063,-0.0768066 q 0.032373,0.003809 0.0660156,0.003809 0.0583984,0 0.10378418,-0.0174561 0.0453857,-0.0174561 0.0768066,-0.0558594 0.0314209,-0.0384033 0.0482422,-0.0990234 0.0168213,-0.06062012 0.0168213,-0.1450439493755 0,-0.1637695306245 -0.0631592,-0.2405761706245 -0.0631592,-0.0768066 -0.18630371,-0.0768066 -0.0171387,0 -0.0333252,6.3476e-4 -0.0161865,6.3477e-4 -0.0288818,0.003809 l -10e-9,0.62651367 m 0.5706543,-0.54907227 q 0.0660156,-0.0260254 0.12854004,-0.0653809 0.0625244,-0.0393555 0.11584473,-0.10092773 l 0.0749023,0 0,0.71411133 0.15234375,0 0,0.0907715 -0.43291016,0 0,-0.0907715 0.17392579,0 0,-0.56430664 q -0.0145996,0.0126953 -0.0345947,0.0263428 -0.0199951,0.0136475 -0.0437988,0.0266602 -0.0238037,0.0130127 -0.0498291,0.0247559 -0.0260254,0.0117432 -0.0507813,0.0193604"
         style="stroke:none"
         pcbmode:style="fill"
         pcbmode:gerber-lp="dcd"
         pcbmode:text="D1"
         id="path52442" />
    </g>
    <g
       style="fill:none;stroke:#444444;stroke-width:0.03;stroke-linecap:round;stroke-linejoin:round;stroke-opacity:0.5"
       transform="matrix(3.5433071,0,0,3.5433068,442.59607,104.66685)"
       pcbmode:type="component"
       pcbmode:footprint="led-5mm"
       pcbmode:refdef="D1"
       id="g54014">
      <path
         inkscape:connector-curvature="0"
         d="M 0,0.1 C 0.05522847,0.1 0.1,0.05522847 0.1,0 0.1,-0.05522847 0.05522847,-0.1 0,-0.1 c -0.05522847,0 -0.1,0.04477153 -0.1,0.1 0,0.05522847 0.04477153,0.1 0.1,0.1 M -0.18,0 0.18,0 Z"
         id="path54016" />
      <text
         sodipodi:linespacing="100%"
         style="font-style:normal;font-variant:normal;font-weight:bold;font-stretch:normal;font-size:0.1px;line-height:100%;font-family:'Sans serif';text-align:center;letter-spacing:0;word-spacing:0;writing-mode:lr-tb;text-anchor:middle;fill:#222222;fill-opacity:0.8;stroke:none"
         x="0"
         y="-0.17"
         id="text54018">
        <tspan
           dy="0.1"
           x="0"
           id="tspan54020">D1</tspan>
        <tspan
           dy="0.1"
           x="0"
           id="tspan54022">0°</tspan>
        <tspan
           dy="0.1"
           x="0"
           id="tspan54024">[42.33,8.94]</tspan>
      </text>
    </g>
    <path
       id="path54404"
       pcbmode:diameter="1.2"
       pcbmode:style="fill"
       style="fill:#444444;fill-opacity:0.6;fill-rule:evenodd;stroke:none"
       d="m 523.837,133.52372 c 0,-1.17415 -0.9519,-2.12598 -2.126,-2.12598 -1.1741,0 -2.126,0.95183 -2.126,2.12598 0,1.17415 0.9519,2.12598 2.126,2.12598 1.1741,0 2.126,-0.95183 2.126,-2.12598 z m -0.2126,0 -3.8268,0 c 0,1.05673 0.8567,1.91339 1.9134,1.91339 l 0,-1.91339 0,-1.91339 c 1.0567,0 1.9134,0.85666 1.9134,1.91339 z"
       inkscape:connector-curvature="0" />
    <path
       id="path54408"
       pcbmode:diameter="1.2"
       pcbmode:style="fill"
       style="fill:#444444;fill-opacity:0.6;fill-rule:evenodd;stroke:none"
       d="m 428.97083,133.52372 c 0,-1.17415 -0.95183,-2.12598 -2.12598,-2.12598 -1.17415,0 -2.12598,0.95183 -2.12598,2.12598 0,1.17415 0.95183,2.12598 2.12598,2.12598 1.17415,0 2.12598,-0.95183 2.12598,-2.12598 z m -0.21259,0 -3.82678,0 c 0,1.05673 0.85666,1.91339 1.91339,1.91339 l 0,-1.91339 0,-1.91339 c 1.05673,0 1.91339,0.85666 1.91339,1.91339 z"
       inkscape:connector-curvature="0" />
    <g
       style="fill:#444444;fill-opacity:0.6;fill-rule:evenodd;stroke:none"
       transform="matrix(3.5433071,0,0,3.5433068,504.4936,103.7544)"
       pcbmode:type="component-shapes"
       id="g54466">
      <path
         inkscape:connector-curvature="0"
         d="M 0,0.55 C 0.30375661,0.55 0.55,0.30375661 0.55,0 0.55,-0.30375661 0.30375661,-0.55 0,-0.55 c -0.30375661,0 -0.55,0.24624339 -0.55,0.55 0,0.30375661 0.24624339,0.55 0.55,0.55 z m 0,-0.055 0,-0.99 c -0.27338095,0 -0.495,0.22161905 -0.495,0.495 L 0,0 0.495,0 C 0.495,0.27338095 0.27338095,0.495 0,0.495 Z"
         style="stroke:none"
         pcbmode:style="fill"
         transform="translate(-1.27,0)"
         pcbmode:diameter="1.1"
         id="path54468" />
      <path
         inkscape:connector-curvature="0"
         d="M 0,0.55 C 0.30375661,0.55 0.55,0.30375661 0.55,0 0.55,-0.30375661 0.30375661,-0.55 0,-0.55 c -0.30375661,0 -0.55,0.24624339 -0.55,0.55 0,0.30375661 0.24624339,0.55 0.55,0.55 z m 0,-0.055 0,-0.99 c -0.27338095,0 -0.495,0.22161905 -0.495,0.495 L 0,0 0.495,0 C 0.495,0.27338095 0.27338095,0.495 0,0.495 Z"
         style="stroke:none"
         pcbmode:style="fill"
         transform="translate(1.27,0)"
         pcbmode:diameter="1.1"
         id="path54470" />
    </g>
    <g
       style="fill:#444444;fill-opacity:0.6;fill-rule:evenodd;stroke:none"
       transform="matrix(3.5433071,0,0,3.5433068,442.59375,104.66917)"
       pcbmode:type="component-shapes"
       id="g54472">
      <path
         inkscape:connector-curvature="0"
         d="M 0,0.55 C 0.30375661,0.55 0.55,0.30375661 0.55,0 0.55,-0.30375661 0.30375661,-0.55 0,-0.55 c -0.30375661,0 -0.55,0.24624339 -0.55,0.55 0,0.30375661 0.24624339,0.55 0.55,0.55 z m 0,-0.055 0,-0.99 c -0.27338095,0 -0.495,0.22161905 -0.495,0.495 L 0,0 0.495,0 C 0.495,0.27338095 0.27338095,0.495 0,0.495 Z"
         style="stroke:none"
         pcbmode:style="fill"
         transform="translate(-1.27,0)"
         pcbmode:diameter="1.1"
         id="path54474" />
      <path
         inkscape:connector-curvature="0"
         d="M 0,0.55 C 0.30375661,0.55 0.55,0.30375661 0.55,0 0.55,-0.30375661 0.30375661,-0.55 0,-0.55 c -0.30375661,0 -0.55,0.24624339 -0.55,0.55 0,0.30375661 0.24624339,0.55 0.55,0.55 z m 0,-0.055 0,-0.99 c -0.27338095,0 -0.495,0.22161905 -0.495,0.495 L 0,0 0.495,0 C 0.495,0.27338095 0.27338095,0.495 0,0.495 Z"
         style="stroke:none"
         pcbmode:style="fill"
         transform="translate(1.27,0)"
         pcbmode:diameter="1.1"
         id="path54476" />
    </g>
    <circle
       style="opacity:1;fill:none;fill-opacity:1;stroke:#000000;stroke-width:0.35433072;stroke-linecap:round;stroke-linejoin:round;stroke-miterlimit:4;stroke-dasharray:none;stroke-dashoffset:1.9831748;stroke-opacity:1"
       id="path64807"
       cx="442.65698"
       cy="104.60854"
       r="8.7160664" />
    <circle
       r="8.7160664"
       cy="103.71568"
       cx="504.7998"
       id="circle64813"
       style="opacity:1;fill:none;fill-opacity:1;stroke:#000000;stroke-width:0.35433072;stroke-linecap:round;stroke-linejoin:round;stroke-miterlimit:4;stroke-dasharray:none;stroke-dashoffset:1.9831748;stroke-opacity:1" />
    <path
       style="fill:#9eee00;fill-opacity:0.6;fill-rule:nonzero;stroke:none;stroke-width:0;stroke-dasharray:none;stroke-opacity:1"
       d="m 479.636,121.78852 c 0.7509,-0.009 1.4231,-0.29249 1.8929,-0.8759 1.0568,-1.31153 2.2037,-2.59163 2.2748,-4.45573 0.4176,-1.15049 0.1421,-2.27212 -0.1618,-3.37845 -0.2654,-0.97108 -0.7912,-1.80535 -1.5975,-2.37552 -0.6483,-0.45827 -1.3456,-0.86158 -2.0641,-1.18872 -0.7509,-0.34244 -1.5744,-0.34165 -2.292,0.0882 -1.8582,1.11052 -2.86532,2.78013 -2.79035,5.04624 0.0156,0.47268 0.19445,0.96078 0.38195,1.40373 0.1964,0.46347 0.5932,0.74525 1.067,0.90522 0.7786,0.26247 1.6981,-0.49391 1.5561,-1.30604 -0.056,-0.31781 -0.1961,-0.61872 -0.2692,-0.93454 -0.2032,-0.88802 0.094,-1.60253 0.7226,-2.20345 0.4095,-0.39169 1.1376,-0.32714 1.4602,0.14865 0.2774,0.41013 0.4835,0.85799 0.4647,1.36659 -0.017,0.48911 -0.069,0.9795 -0.1467,1.4624 -0.2614,1.61704 -1.2297,2.61356 -2.6606,3.16933 -0.5429,0.21122 -1.0975,0.18969 -1.592,-0.14665 -0.3938,-0.26869 -0.7869,-0.55688 -1.12143,-0.89942 -1.07552,-1.09813 -1.61058,-2.45761 -1.39045,-4.00798 0.27828,-1.95739 0.81583,-3.85494 1.96248,-5.4802 0.5111,-0.72283 1.14,-1.35749 1.7104,-2.03526 2.1341,-2.48564 -0.5203,-3.69423 -2.25616,-2.20736 -0.87242,1.171 -1.62387,2.41976 -2.37086,3.67175 -0.45396,0.76088 -0.82091,1.58612 -1.15152,2.41456 -1.20885,3.02388 -0.86401,5.94055 0.67741,8.7316 0.91873,1.66309 2.3095,2.66892 4.14893,2.93659 0.7018,0.10148 1.4163,0.11462 1.8948,0.15055 0.7046,0 1.1767,0.009 1.6503,0 z"
       id="path64962"
       inkscape:connector-curvature="0"
       sodipodi:nodetypes="cccccccccccccccccccccccscccccc" />
    <path
       inkscape:connector-curvature="0"
       id="path65031"
       d="m 485.7917,97.788527 c -0.015,0.0883 0.3367,0.26303 0.4172,0.23454 1.4312,-0.50723 2.8876,-0.98804 4.2541,-1.5808 1.5926,-0.69157 3.2368,-1.24316 4.9823,-1.64464 1.7335,-0.39811 3.4733,-0.78636 5.1889,-1.23275 2.4866,-0.64784 5.0095,-1.04628 7.5636,-1.30958 1.3291,-0.1361 2.6583,-0.26217 3.9879,-0.39129 3.4768,-0.33818 6.8286,-0.20682 10.0668,0.3494 0.6204,0.10685 1.2199,0.25454 1.8532,0.32903 0.6853,0.0802 1.3153,-0.1124 1.8236,-0.49673 0.2345,-0.17633 0.4552,-0.36902 0.6374,-0.5698 0.6592,-0.72657 0.3346,-1.55771 -0.6799,-1.87385 -1.1621,-0.36176 -2.4416,-0.50655 -3.7367,-0.57057 -2.6012,-0.12769 -5.2167,-0.21609 -7.8421,-0.25105 -1.4174,-0.0196 -2.864,0.0799 -4.2997,0.17556 -1.3285,0.0887 -2.6608,0.24636 -4.1585,0.39058 -0.3852,0.0277 -0.9374,0.0563 -1.49,0.1051 -4.1497,0.37146 -8.1346,1.29824 -11.9841,2.65931 -1.8855,0.66732 -3.5047,1.56591 -4.8276,2.73162 -0.8698,0.76623 -1.628,1.92596 -1.7563,2.94621 z"
       style="fill:#9eee00;fill-opacity:0.6;fill-rule:nonzero;stroke:none;stroke-width:0;stroke-dasharray:none;stroke-opacity:1" />
    <g
       id="g65085"
       pcbmode:type="module-shapes"
       style="fill:none;stroke:#555555;stroke-width:0.1;stroke-miterlimit:4;stroke-dasharray:none;stroke-opacity:1"
       transform="matrix(0,-3.5433071,3.5433068,0,474.27791,252.6579)">
      <path
         sodipodi:nodetypes="cscsscccccscsssscsccscssc"
         inkscape:connector-curvature="0"
         id="path65087"
         pcbmode:style="stroke"
         style="fill:none;stroke-width:0.1;stroke-miterlimit:4;stroke-dasharray:none"
         d="m 38.939668,-23.869438 c -1.622261,0.05384 -2.938701,1.315499 -2.938701,2.937935 l 0,1.34455 -2.279892,0 c -1.623156,0 -2.939241,1.314964 -2.939241,2.937397 l 0,3.67682 -1e-6,5.9697778 0,2.671032 -2e-6,16.7758512 0,4.200234 c 0.05386,1.62154 1.316085,2.937935 2.939241,2.937935 l 2.279892,0 0,1.349951 c 0,1.622435 1.31555,2.937393 2.938701,2.937393 l 2.895501,0 c 1.623153,0 2.93924,-1.314958 2.93924,-2.937393 l 0,-1.349951 2.827459,0 c 1.623156,0 2.938698,-1.315502 2.938698,-2.937935 0,-11.097905 0,-22.19581 0,-33.293715 0,-1.622433 -1.315545,-2.937397 -2.938698,-2.937397 l -2.827459,0 0,-1.34455 c -3e-6,-1.622436 -1.316087,-2.937935 -2.93924,-2.937935 z" />
    </g>
    <path
       style="fill:#9eee00;fill-opacity:0.6;fill-rule:nonzero;stroke:none;stroke-width:0;stroke-dasharray:none;stroke-opacity:1"
       d="m 427.15699,92.024677 c -0.0361,0.12035 0.15827,0.47737 0.2226,0.46204 1.14312,-0.27355 2.29602,-0.50175 3.41882,-0.91652 1.30876,-0.48446 2.61294,-0.75456 3.94423,-0.78054 1.32193,-0.0249 2.64542,-0.0338 3.96895,-0.13264 1.9185,-0.14451 3.79009,0.0757 5.6443,0.49703 0.96458,0.22051 1.92647,0.45534 2.88934,0.68591 2.51825,0.60221 4.81362,1.83078 6.90701,3.62592 0.40104,0.34435 0.7756,0.74001 1.19493,1.04251 0.45395,0.32685 0.94812,0.24983 1.41325,-0.13645 0.2142,-0.17691 0.42363,-0.38123 0.60854,-0.60903 0.6691,-0.82436 0.68365,-2.10281 0.0687,-2.86625 -0.70438,-0.87396 -1.55328,-1.47704 -2.43623,-1.97051 -1.77396,-0.98991 -3.56915,-1.92861 -5.38672,-2.79467 -0.98102,-0.46859 -2.01693,-0.7776 -3.0441,-1.08854 -0.95053,-0.28746 -1.92361,-0.47852 -3.00789,-0.73998 -0.27631,-0.0805 -0.66893,-0.21177 -1.06779,-0.31454 -2.99627,-0.76434 -5.28087,0.067 -8.3545,0.79801 -1.50562,0.35906 -2.89277,1.12852 -4.15092,2.3686 -0.82719,0.81504 -2.44805,1.4647 -2.8325,2.87022 z"
       id="path65089"
       inkscape:connector-curvature="0"
       sodipodi:nodetypes="ccccccccccccccccccccc" />
    <g
       transform="matrix(0,-3.5433071,3.5433068,0,474.27791,252.6579)"
       style="fill:none;stroke:#9eee00;stroke-width:1;stroke-miterlimit:4;stroke-dasharray:none;stroke-opacity:0.6"
       pcbmode:type="module-shapes"
       id="g65093">
      <path
         d="m 40.068557,-22.740549 c -1.622261,0.05384 -2.938701,0.18661 -2.938701,1.809046 l 2.257777,0.825372 -2.257777,0.655159 0,0.992908 -2.279892,0 c -2.297954,0 -2.939241,0.876424 -2.939241,2.937397 l 0,2.547931 -1e-6,2.401685 3.838473,1.3459507 -3.838473,1.728256 -1e-6,1.3405557 2.257778,0.9870616 -2.257778,1.5932561 -10e-7,16.0198959 0,3.071345 c -0.196769,2.624054 1.045789,2.937935 2.939241,2.937935 l 2.279892,0 0,0.699794 0,1.779046 c 0,1.622435 1.31555,1.808504 2.938701,1.808504 l 0.637723,0 c 1.623153,0 2.93924,-0.186069 2.93924,-1.808504 l -2.257778,-0.569522 2.257778,-0.856746 0,-1.052572 2.827459,0 c 1.792558,0 3.051979,-0.220453 2.938698,-2.937935 l 0,-12.2876689 -3.386667,-1.7638891 3.386667,-1.25992072 0,-15.72445828 c 0.211759,-1.807722 -0.827258,-2.937397 -2.938698,-2.937397 l -4.520792,0 1.693333,-0.48894 0,-1.984499 c 0,-1.701331 -1.342746,-1.809046 -2.93924,-1.809046 z"
         style="fill:none;stroke:#9eee00;stroke-width:1;stroke-linejoin:round;stroke-miterlimit:4;stroke-dasharray:none;stroke-opacity:0.6"
         pcbmode:style="stroke"
         id="path65095"
         inkscape:connector-curvature="0"
         sodipodi:nodetypes="cscccsscccccccccsccsssscccscccccsccssc" />
    </g>
    <path
       sodipodi:nodetypes="cccccccc"
       inkscape:connector-curvature="0"
       id="path65107"
       d="m 550.4798,106.16506 c -2.507,4.8649 -5.2605,5.1448 -7.8322,0.635 -0.1477,-0.1841 -0.289,-0.408 -0.4407,-0.56 -0.1641,-0.1641 -0.3223,-0.038 -0.4563,0.3 -0.062,0.1553 -0.1207,0.3291 -0.1704,0.5159 -0.1801,0.6759 -0.1243,1.5764 0.1132,2.0241 1.3488,4.1879 6.7147,5.0837 9.4497,-0.9117 0.4576,-1.0874 0.1044,-3.097 -0.6633,-2.0033 z"
       style="fill:#9eee00;fill-opacity:0.6;fill-rule:nonzero;stroke:none;stroke-width:0;stroke-dasharray:none;stroke-opacity:1" />
    <path
       style="fill:#9eee00;fill-opacity:0.6;fill-rule:nonzero;stroke:none;stroke-width:0;stroke-dasharray:none;stroke-opacity:1"
       d="m 483.3047,89.623807 c -2.507,4.8649 -5.2605,5.1448 -7.8322,0.635 -0.1477,-0.1841 -0.289,-0.408 -0.4407,-0.56 -0.16414,-0.1641 -0.32234,-0.038 -0.45634,0.3 -0.062,0.1553 -0.1207,0.3291 -0.1704,0.5159 -0.1801,0.6759 -0.1243,1.5764 0.1132,2.0241 1.34884,4.1879 6.71474,5.0837 9.44974,-0.9117 0.4576,-1.0874 0.1044,-3.097 -0.6633,-2.0033 z"
       id="path65109"
       inkscape:connector-curvature="0"
       sodipodi:nodetypes="cccccccc" />
    <path
       sodipodi:nodetypes="cccccccc"
       inkscape:connector-curvature="0"
       id="path65111"
       d="m 400.06899,111.7656 c 1.70537,-3.42087 3.57842,-3.61769 5.32781,-0.44652 0.1005,0.12944 0.19658,0.28688 0.29979,0.39377 0.1117,0.11545 0.21926,0.0267 0.31042,-0.21095 0.0421,-0.10924 0.0822,-0.23141 0.1159,-0.36276 0.12257,-0.47529 0.0845,-1.10849 -0.077,-1.4233 -0.91754,-2.94482 -4.56766,-3.57472 -6.42812,0.64109 -0.31128,0.76462 -0.071,2.17771 0.4512,1.40867 z"
       style="fill:#9eee00;fill-opacity:0.6;fill-rule:nonzero;stroke:none;stroke-width:0;stroke-dasharray:none;stroke-opacity:1" />
    <path
       style="fill:#9eee00;fill-opacity:0.6;fill-rule:nonzero;stroke:none;stroke-width:0;stroke-dasharray:none;stroke-opacity:1"
       d="m 426.27924,89.937767 c 0.002,0.0485 0.14134,0.12432 0.16731,0.10468 0.46172,-0.34938 0.93458,-0.68582 1.36613,-1.07799 0.5029,-0.45746 1.03599,-0.84203 1.61768,-1.15086 0.57773,-0.30639 1.15853,-0.60778 1.72582,-0.9393 0.82217,-0.48095 1.67847,-0.82912 2.55737,-1.10594 0.45743,-0.14356 0.91578,-0.28171 1.37397,-0.42153 1.19813,-0.3659 2.39233,-0.47162 3.58278,-0.34189 0.2281,0.025 0.45232,0.0732 0.68221,0.08 0.24872,0.007 0.4546,-0.13002 0.60109,-0.36439 0.0677,-0.10759 0.12909,-0.22331 0.17621,-0.34134 0.17047,-0.42717 -0.0153,-0.85896 -0.40031,-0.97622 -0.4411,-0.13414 -0.90507,-0.14489 -1.36762,-0.11121 -0.92897,0.0681 -1.85962,0.15824 -2.7892,0.27775 -0.50192,0.0641 -1.00395,0.19413 -1.50248,0.32143 -0.46128,0.11793 -0.91799,0.27331 -1.43424,0.43013 -0.13357,0.0353 -0.32602,0.0798 -0.51687,0.1353 -1.43277,0.41934 -2.75985,1.12992 -4.002,2.06792 -0.60835,0.4598 -1.1029,1.03046 -1.47006,1.72977 -0.24141,0.45969 -0.40975,1.12601 -0.36773,1.68381 z"
       id="path65115"
       inkscape:connector-curvature="0" />
  </g>
</svg>
